<svg xmlns="http://www.w3.org/2000/svg" width="102.363" height="98.443" viewBox="0 0 102.363 98.443">
  <g transform="translate(0.66 0.66)">
    <path d="M30.278,10.722l4.327,7L42.6,6.922" transform="translate(12.229 2.527)" fill="none" stroke="#383e48" stroke-linecap="round" stroke-linejoin="round" stroke-width="3"/>
    <path d="M30.278,23.767l4.327,7,7.994-10.8" transform="translate(12.229 7.946)" fill="none" stroke="#383e48" stroke-linecap="round" stroke-linejoin="round" stroke-width="3"/>
    <line x2="17.823" transform="translate(16.444 20.248)" fill="none" stroke="#383e48" stroke-linecap="round" stroke-linejoin="round" stroke-width="3"/>
    <line x2="17.823" transform="translate(16.444 38.712)" fill="none" stroke="#383e48" stroke-linecap="round" stroke-linejoin="round" stroke-width="3"/>
    <line x2="17.823" transform="translate(16.444 57.175)" fill="none" stroke="#383e48" stroke-linecap="round" stroke-linejoin="round" stroke-width="3"/>
    <line x2="8.106" transform="translate(29.054 84.014)" fill="none" stroke="#383e48" stroke-linecap="round" stroke-linejoin="round" stroke-width="3"/>
    <g transform="translate(0.84 0.84)">
      <g id="Group_3202" data-name="Group 3202">
        <rect width="64.535" height="90.605" rx="4.905" fill="none" stroke="#383e48" stroke-linecap="round" stroke-linejoin="round" stroke-width="3"/>
        <line x2="52.018" transform="translate(5.945 75.743)" fill="none" stroke="#383e48" stroke-linejoin="round" stroke-width="3"/>
        <path d="M60.789,80.475A19.222,19.222,0,0,0,86.368,67.338,19.77,19.77,0,0,0,82.38,50.093L72.5,37.788A4.315,4.315,0,0,0,67.1,36.58a4.161,4.161,0,0,0-1.22,6.239l5.142,6.409-6.7-8.35a4.311,4.311,0,0,0-5.4-1.206,4.161,4.161,0,0,0-1.222,6.241l5.67,7.067-7.246-9.029a4.308,4.308,0,0,0-5.4-1.2,4.161,4.161,0,0,0-1.22,6.241l6.2,7.724-15.653-19.5a4.27,4.27,0,0,0-5.744-.926,4.16,4.16,0,0,0-.848,6L51.5,64.78a1.014,1.014,0,0,1-1.077,1.608L40.289,63.416c-4.66-1.366-7.066,5.36-2.594,7.258Z" transform="translate(12.325 13.58)" fill="#fff" stroke="#383e48" stroke-width="3"/>
        <path d="M60.789,80.475A19.222,19.222,0,0,0,86.368,67.338,19.77,19.77,0,0,0,82.38,50.093L72.5,37.788A4.315,4.315,0,0,0,67.1,36.58a4.161,4.161,0,0,0-1.22,6.239l5.142,6.409-6.7-8.35a4.311,4.311,0,0,0-5.4-1.206,4.161,4.161,0,0,0-1.222,6.241l5.67,7.067-7.246-9.029a4.308,4.308,0,0,0-5.4-1.2,4.161,4.161,0,0,0-1.22,6.241l6.2,7.724-15.653-19.5a4.27,4.27,0,0,0-5.744-.926,4.16,4.16,0,0,0-.848,6L51.5,64.78a1.014,1.014,0,0,1-1.077,1.608L40.289,63.416c-4.66-1.366-7.066,5.36-2.594,7.258l23.094,9.8" transform="translate(12.325 13.58)" fill="none" stroke="#383e48" stroke-linecap="round" stroke-linejoin="round" stroke-width="3"/>
        <path d="M60.789,80.475A19.222,19.222,0,0,0,86.368,67.338,19.77,19.77,0,0,0,82.38,50.093L72.5,37.788A4.315,4.315,0,0,0,67.1,36.58a4.161,4.161,0,0,0-1.22,6.239l5.142,6.409-6.7-8.35a4.311,4.311,0,0,0-5.4-1.206,4.161,4.161,0,0,0-1.222,6.241l5.67,7.067-7.246-9.029a4.308,4.308,0,0,0-5.4-1.2,4.161,4.161,0,0,0-1.22,6.241l6.2,7.724-15.653-19.5a4.27,4.27,0,0,0-5.744-.926,4.16,4.16,0,0,0-.848,6L51.5,64.78a1.014,1.014,0,0,1-1.077,1.608L40.289,63.416c-4.66-1.366-7.066,5.36-2.594,7.258l23.094,9.8" transform="translate(12.325 13.58)" fill="none" stroke="#d27137" stroke-linecap="round" stroke-linejoin="round" stroke-width="3"/>
      </g>
    </g>
  </g>
</svg>
