<svg xmlns="http://www.w3.org/2000/svg" width="98.54" height="98.539" viewBox="0 0 98.54 98.539">
  <g transform="translate(1.587 1.587)">
    <circle cx="7.62" cy="7.62" r="7.62" transform="translate(40.063 30.678)" fill="none" stroke="#e0772f" stroke-linecap="round" stroke-linejoin="round" stroke-width="3"/>
    <path d="M73.5,86.053V74.536a6.179,6.179,0,0,0-6.179-6.179H47.709a6.18,6.18,0,0,0-6.179,6.179V86.053" transform="translate(-9.834 -15.551)" fill="none" stroke="#e0772f" stroke-linecap="round" stroke-linejoin="bevel" stroke-width="3"/>
    <line y2="11.807" transform="translate(40.225 62.692)" fill="none" stroke="#e0772f" stroke-linecap="round" stroke-linejoin="bevel" stroke-width="3"/>
    <line y1="11.807" transform="translate(55.14 62.692)" fill="none" stroke="#e0772f" stroke-linecap="round" stroke-linejoin="bevel" stroke-width="3"/>
    <path d="M92.554,25.317a1.9,1.9,0,0,0-1.993-1.093L80.9,25.4a2.961,2.961,0,0,1-2.468-.87l-5.066-5.075a2.971,2.971,0,0,1-.866-2.471l1.187-9.666a1.9,1.9,0,0,0-1.092-1.993L63.072,1.385a1.9,1.9,0,0,0-2.182.637L54.9,9.693a2.957,2.957,0,0,1-2.36,1.129l-7.169-.01a2.972,2.972,0,0,1-2.361-1.135L37,2.009a1.9,1.9,0,0,0-2.182-.636l-9.5,3.938a1.9,1.9,0,0,0-1.092,1.994L25.4,16.967a2.961,2.961,0,0,1-.87,2.468L19.459,24.5a2.966,2.966,0,0,1-2.471.866L7.323,24.181a1.9,1.9,0,0,0-1.993,1.091L1.385,34.794a1.9,1.9,0,0,0,.638,2.182l7.67,5.993a2.954,2.954,0,0,1,1.13,2.359L10.815,52.5A2.972,2.972,0,0,1,9.68,54.86l-7.67,6a1.9,1.9,0,0,0-.637,2.183l3.939,9.5A1.9,1.9,0,0,0,7.307,73.64l9.662-1.18a2.964,2.964,0,0,1,2.468.87L24.5,78.407a2.97,2.97,0,0,1,.866,2.472l-1.186,9.664a1.9,1.9,0,0,0,1.092,1.994L34.8,96.479a1.9,1.9,0,0,0,2.182-.637l5.992-7.668a2.957,2.957,0,0,1,2.36-1.131l7.169.009a2.972,2.972,0,0,1,2.361,1.135l6,7.669a1.905,1.905,0,0,0,2.183.637l9.5-3.939a1.905,1.905,0,0,0,1.092-1.994L72.463,80.9a2.961,2.961,0,0,1,.87-2.469l5.075-5.064a2.971,2.971,0,0,1,2.471-.866l9.666,1.186a1.9,1.9,0,0,0,1.993-1.091l3.945-9.522a1.9,1.9,0,0,0-.638-2.181L88.174,54.9a2.954,2.954,0,0,1-1.13-2.359l.009-7.172a2.969,2.969,0,0,1,1.134-2.361l7.669-6a1.9,1.9,0,0,0,.637-2.183ZM74.719,38.251a27.91,27.91,0,1,1-36.466-15.1A27.729,27.729,0,0,1,74.719,38.251Z" transform="translate(-1.25 -1.25)" fill="none" stroke="#3f4753" stroke-linecap="round" stroke-miterlimit="10" stroke-width="3"/>
  </g>
</svg>
