<svg xmlns="http://www.w3.org/2000/svg" width="25" height="25" viewBox="0 0 25 25">
  <path id="Icon_awesome-flickr" data-name="Icon awesome-flickr" d="M22.321,2.25H2.679A2.679,2.679,0,0,0,0,4.929V24.571A2.679,2.679,0,0,0,2.679,27.25H22.321A2.679,2.679,0,0,0,25,24.571V4.929A2.679,2.679,0,0,0,22.321,2.25ZM8.064,18.266a3.544,3.544,0,1,1,3.544-3.544A3.541,3.541,0,0,1,8.064,18.266Zm8.873,0a3.544,3.544,0,1,1,3.544-3.544A3.541,3.541,0,0,1,16.936,18.266Z" transform="translate(0 -2.25)" fill="#fff"/>
</svg>
