<svg xmlns="http://www.w3.org/2000/svg" width="4000" height="1500" viewBox="0 0 4000 1500">
  <defs>
    <clipPath id="clipPath">
      <!-- Define the clipping path shape here -->
      <rect x="0" y="0" width="861.271" height="150" />
    </clipPath>
  </defs>

  <rect fill="#F3F3F5" width="100%" height="1350" />
  <rect fill="#fff" width="100%" height="150" y="1350" />

  <g opacity="0.03" clip-path="url(#clipPath)" transform="translate(1569, 1350)">
    <g transform="translate(0,-180)">
      <path id="Path_296" data-name="Path 296" d="M577.279,402.195c11.149-12.891,25.495-35.449,29.018-45.4,7.32-20.558,8.373-40.845,3.515-54.426-10.157-28.418-17.407-28.106-16.667-44.714,0,0,10.29-.16,23.884,8.082,12.132,7.363,14.767,14.755,20.654,30.11a162.417,162.417,0,0,1,6.712,24s29.423-20.119,47.743-40.841c12.752-14.419,21.678-34.394,26.094-49.839,19.951-69.555-22.62-104.6-46.9-107.706C688.783,71.549,648.5,88.436,559.992,59.537c-20.943-6.842-39.118-19.457-53.274-26.611-47.672-24.073-70.288-46.475-69.2-17.585,0,0-37.428-9.384-67.7-14.135-19.15-3.01-66.992.1-72.337,4.041a163.271,163.271,0,0,1,23.239,14.131c-16.42-2.283-54.339-.653-104.854,7.4,6.456,3.24,24.706,8.838,33.835,21.544-24.437-3.257-60.5-2.5-74.952,6.2,10.475,3.786,16.643,5.425,24.875,14.722C142.076,86.559,80.942,120.772,58.909,153.6c20.236-2.612,61.762-7.351,61.762-7.351-14.606,6.608-20.323,11.293-41.381,26.439C60.007,186.553,51.8,204.039,44.038,216.7c29.1-13.942,43.971-17.745,58.557-22.936-19.522,35.367,22.351,92.91,57.194,93.711-14.247,25.95-11.124,21.178-7.981,30.472,10.744-6.977,9.443,9.684,23.239,2.71,16.015-8.127,33.025-13.109,34.289-12.378-8.926,20.312-10.426,19.474-7.406,40.262,26.118-16.287,63.708-8.521,63.708-8.521-2.474,21.638,11.818-19.355,15.048-3.15,8.435-5.794.748,34.973,14.156,26.562,0,27.773,29.927-12.291,38.151-6.484,15.069-.809,66.566-13.137,82.911-8.111,10.269,3.133-7.253,8.341-1.454,14.312,8.286,8.521,20.459,8.172,39.271-3.035C467.167,352.081,480,340.455,480,340.455a106.009,106.009,0,0,1-14.317-14.632c-4.288-5.478-5.816-8.653-7.134-12.476,2.222,2.255,14.821,10.029,28.056,16.316,7.142,3.392,19.567,9.2,33.719,15.987,16.378,7.86,31.823,19.334,38.928,26.566,10.62,10.784,13.371,18.517,18.031,29.979" transform="translate(137.872 -0.001)" fill="#00396e"/>
      <path id="Path_297" data-name="Path 297" d="M518.235,18.488,229.743,65.358C173.6,56.606,125.765,46.27,68.691,38.352c-12.153-1.68-21.876-2.09-33.8-.7-4.151.489,14.9,16.139,21.141,20.583l74.824,49.646,25.519,14.148,45.636,23.416C145.993,135.056,101.241,124.264,44.712,113c-9.848-1.955-33.331-7.018-35.706-2.443s16.523,20.266,25.321,26.632c41.076,29.724,83.519,54.82,129.419,78.9-46.289-10.3-84.287-17.186-129.7-29.268C21.3,183.421.58,177.848.005,182.316c-.3,2.329,10.95,14.271,26.362,25.753,14.309,10.645,32.372,20.759,43.748,26.34,39.4,19.318,99.091,44.007,146.731,50.081C260.062,290,286.643,287.772,327.6,292c9.125.932,38.944-23.831,38.944-23.831s48.606,25.4,103.325,27.967c27.048,1.289,35.3,18.8,46.334,19.088l10.124-161.43Z" transform="translate(0 57.434)" fill="#00396e"/>
      <path id="Path_298" data-name="Path 298" d="M11.085,24.209c3.833,7.918,43.542,30.27,77.727,51.921,43.034,27.248,298.448,148.407,315.569,157.96l69.8-31.761Z" transform="translate(34.706 75.207)" fill="#00396e"/>
      <path id="Path_299" data-name="Path 299" d="M494.011,113.209C458.912,107.435,240,62.828,108.282,39.634c-49.255-8.677-81.061-14-97.2-15.425L119.021,69.522,469.974,203.7Z" transform="translate(34.709 75.207)" fill="#fff"/>
      <path id="Path_300" data-name="Path 300" d="M17.978,48.611c.273,1.224,75.563,35.166,136.7,58.007,23.909,8.924,50.345,22.468,81.47,33.946,3.718,1.363,103.235,33.617,162.626,52.356l-33.459,26.135C128.821,143.775,10.456,53.908,4.59,41.958Z" transform="translate(14.372 130.348)" fill="#fff"/>
      <path id="Path_301" data-name="Path 301" d="M12.992,47.273a1258.043,1258.043,0,0,0,116.519,52.849c34.02,13.412,78.5,20.217,109.641,19.589,18.72-.378,28.63-23.88.7-29.079-15.754-2.936-31.554-6.107-47.4-9.318-29.51-5.971-58.908-11.507-89.182-18.037C73.742,56.9,21.332,44.776,4.59,41.959Z" transform="translate(14.372 130.351)" fill="#00396e"/>
      <path id="Path_302" data-name="Path 302" d="M13.954,66.725c44.1,23.392,93.589,43.338,154.121,62.574,29.815,9.478,64.191,15.195,101.632,20.907,24.425,3.737,51.022,5.1,78.2,8.567-46.1-5.864-84.448-12.887-115.209-27.314,64.4,15.852,142.662,21.158,226.8,22.045l28.791-35.769-13.214-9.585-2.573,5.795c-20.439,2.973-40.935,5.117-61.362,6.542l-6.716,9.158-178.723-17.77C146.173,99.426,64.22,78.207,2.243,59.345l9.691,6.176Z" transform="translate(7.024 184.364)" fill="#00396e"/>
      <path id="Path_303" data-name="Path 303" d="M12.438,65.87a912.148,912.148,0,0,0,127.015,54.1c26.783,9.146,71.833,21.667,81.8,21.523,2.8-.053-31.34-10.657-56.648-26.406C197.737,122.945,376.456,153.2,458.7,154.1c.236,0,.467,0,.7,0l-42.212,8.324c-26.424-1.462-54.24-1.91-54.24-1.91s-21.661-3.3-27.548-4.1c-11.306-1.515-24.206-1.253-37.135-2.345-36.016-3.014-72.857.747-105.7-7.7-34.479-8.911-66.909-18.55-94.581-30.135C64.6,102.268,34.917,87.59,7.4,65.825c-2.218-1.741-5.122-5.811-5.155-6.472-.012-.287,10.195,6.517,10.195,6.517" transform="translate(7.024 184.36)" fill="#fff"/>
      <path id="Path_304" data-name="Path 304" d="M554.976,378.074c10.422-12.033,17.857-27.441,20.765-36.845,5.37-17.47,2.739-37.441-2.3-49.432-8.047-19.195-18.919-24.883-15.259-50.081,0,0,3.478-1.676,24.313,4.542,12.789,3.823,23.243,11.285,30.766,24.636,4.754,8.419,11.673,26.923,11.673,26.923s16.688-9.018,33.8-28.369c11.9-13.462,20.488-29.1,24.615-43.527,21.905-76.4-20.872-100.774-50.853-104.589,16.279-46.607-15.961-30.7-98.6-57.683C514.355,57.263,497.39,45.477,484.176,38.8c-44.513-22.48-64.852-44.726-63.828-17.753,0,0-36.71-9.244-64.67-15.269C339.651,2.32,304.841.394,299.851,4.061c8.014,4.111,24.644,12.92,27.593,19.207C312.132,21.133,264.4,17.4,217.25,24.915c6.031,3.018,20.472,9.823,29.01,21.687-22.818-3.035-58.536,4.25-72.035,12.369,9.79,3.532,15.552,5.072,23.227,13.745-53.732,16.16-110.8,48.106-131.373,78.754,18.89-2.444,57.665-6.858,57.665-6.858-13.635,6.16-18.976,10.534-38.639,24.673-18,12.948-25.66,29.268-32.909,41.087,27.164-13.014,41.047-16.562,54.666-21.416-18.221,33.026,20.868,86.758,53.4,87.489-13.3,24.221-10.389,19.778-7.448,28.472,10.025-6.534,8.823,9.018,21.694,2.5,14.953-7.565,30.836-12.238,32.013-11.54-8.332,18.956-32.348,48.385-29.526,67.781,24.384-15.2,67.3-31.063,67.3-31.063-2.317,20.2-18.836,49.674-15.825,64.82,7.885-5.417,45.359-42.209,57.867-50.052,0,25.917,24.619,6.283,32.3,11.692,22.9-1.207,55.922-.793,75.918-.936,25.788-.16,50.06-23.926,50.06-23.926s-21.558-16.7-19.72-39.4c8.385,4.624,24.908,16.094,55.876,28.693,15.767,6.41,37.759,18.028,51.283,27.942,15.036,11.014,22.025,26.127,22.921,26.648" transform="translate(163.409 6.462)" fill="#fff"/>
      <path id="Path_305" data-name="Path 305" d="M165.526,255.221c30.179-39.547-23.264,18.653-25.953,44.053,24.185-19.051,41.7-14.542,67.124-15.474,0,0-4.622,39.12-28.659,72.06,17.089-23.408,96.547-41.991,99.831-41.81.417,1.815,19.191,6.172,40.638,6.985,14.069.522,29.08-.23,41.6,2.505,13.693,2.965,14.057,20.7,15.709,21.174,20.117,5.918,47.615-18.184,47.615-18.184a79.773,79.773,0,0,1-7.344-9.055c-7.444-10.624-15-29.572-7.2-43.391,4.329,4.6,24.714,19.634,49.932,29.207,19.439,7.38,34.161,15.228,50.469,23.56,25.4,12.92,35.036,29.042,35.036,29.042s18.134-29.506,12.434-54.147c-2.437-10.534-4.56-15.359-9.728-24.271-1.946-3.318-9.211-12.23-10.76-22.5-1.838-12-.211-25.178,2.173-30.488,19.761.76,33.256,4.148,44.583,9.766,15.783,7.864,27.2,22.119,34.347,44.841,7.6-5.417,21.182-13.848,32.186-33.654,6.493-11.7,12.669-21.7,15.647-47.617,8.042-69.838-36.272-74.688-61.019-74.467C630.6,89.668,599.226,88.6,566.011,82.49s-57.76-20.841-83.672-34.853-65.034-32.87-65.034-32.87,2.169,6.575,18.588,24.94c-2.119-1.409-35.351-19.593-61.659-25.055-20.472-4.25-50.176-12.365-56.016-9.421,11.673,7.277,15.494,12.484,30.229,28.652-20.674-6.526-85.134-16.969-118.712-10.328,15.094,9.285,22.421,13.507,31.331,25.038,0,0-13.338-.78-33.2-.2-5.271.148-42.757,1.9-42.926,3.351,4.49,1.133,19.162,9.211,28.952,18.328-15.222,1.544-50.742,12.464-80.214,25.552A278.611,278.611,0,0,0,92.6,118.838c-11.88,8.3-20.4,16.846-20.162,16.809,12.392-2.082,49.651-6.542,85.625-6.866C128.416,138.616,117.6,141,94.123,156.64,70.4,172.431,58.38,184.878,55.819,190.8c15.87-9.914,63.419-28.32,63.935-27.544-7.208,7.01,91.565,74.113,45.772,91.961" transform="translate(174.755 14.294)" fill="#00396e"/>
      <path id="Path_306" data-name="Path 306" d="M483.815,144.411c-25.788.768-45.917-5.166-71.7,16.09-23.615,19.453-42.5,31.215-81.094,24.809,11.079,28.4,13.425,34.057,4.858,37.876-3.92,1.741-64.377,19.729-89.711,34.6C244.8,260.047,300.647,207,300.647,207a245.844,245.844,0,0,0-35.433-.452c-20.1,1.158-44.785,5.072-59.569,9.556,25.507-17.474,19.344-21.462,53.691-34.513-42.782-1.113-77.261-4.8-109.426,8.226,25.908-27.223,27.06-43.806,51.456-51.527-60.209-2.464-76.715,23.835-113.962,36,4.5-8.349,13.937-17.827,22.632-28.3,5.552-6.694,8.431-13.774,17.741-20.566,34.64-25.281,19.431-15.852,54.071-36.418,0,0-63.266-3.023-107.328,9.178C116.273,76.741,151.582,64.905,201.3,62.2,191,51.879,174.3,44.828,174.3,44.828c56.4-3.614,78.05,4.665,83.713,5.6-11.041-13.462-29.076-25.626-39.568-30.57,25.131-2.049,91.925,14.316,112.673,21.494,2.342.809-21.583-27.289-24.772-31.3C320.322,7.83,399.863,46.285,412.1,54.868c-3.6-8.92-18.844-29.7-23.31-33.609,15.569,8.953,76.079,49.264,96.6,57.773,20.492,8.509,44.942,8.587,46.582,11.581s-2.367,20.316-21.41,30.094c48.961-2.037,83.073-.2,85.692,48.373s-29.5,76.627-29.5,76.627c13.516-44.443,10-89.271-12.462-97.612-12.615-4.694-35.7-8.23-68.735-7.248" transform="translate(233.302 30.951)" fill="#fff"/>
      <path id="Path_307" data-name="Path 307" d="M122.842,70.372c-.574.862-1.115,1.749-1.611,2.661,3.321-1.133,3.321-1.992,1.611-2.661" transform="translate(379.54 218.621)" fill="#fff"/>
      <path id="Path_308" data-name="Path 308" d="M141.617,65.4c-14.561,4-29.39,9.429-44.5,22.55,9.93-6.8,26.337-14.743,44.5-22.55" transform="translate(304.059 203.162)" fill="#fff"/>
      <path id="Path_309" data-name="Path 309" d="M125.828,45.3c30.138-11.918,69.47-13.8,82.577-2.575-5.378,8.024.975,29.392,23.719,36.55-3.3,1.9-20.711,5.934-30.229,5.129-12.227-1.039-21.046-9-24.028-23.971l17.432.883s-3.3-11.441-20.24-14.924c-14.321-2.936-24.433-4.074-49.23-1.092" transform="translate(393.932 109.52)" fill="#00396e"/>
      <path id="Path_310" data-name="Path 310" d="M174.4,69.393a63.44,63.44,0,0,0-14.115-11.848s22.591,3.392,33.831,17.548c9.815,12.406,6.543,33.8,5.139,37.786-5.837-12.776-28.679-17.474-40.006-28.09-8.86-8.287-7.762-18.435-6.527-21.963,5.874,3.335,11.719,4.534,16.453,7.909,9.294,6.62,14.144,10.2,14.144,10.2s-2.177-3.556-8.918-11.54" transform="translate(475.534 178.772)" fill="#fff"/>
      <path id="Path_311" data-name="Path 311" d="M364.116,67.7c-9.435-15.322-39.923-31.178-73.262-26.55-16.548,2.312-32.339,19.133-34.772,19.614-11.962,2.341-26.47-4.977-26.47-4.977-22.876,22.628-28.254,35.892-88.319,45.235,3.362,20,14.375,60.323,55.285,81.616,17.721,9.232,43.145,16.739,60.069,26.3,9.864,5.573,19.906,17.055,19.906,17.055s4.73-28.537-2.549-42.788c-5.213-10.193-13.615-18.653-17.774-34.685-3.61-13.946-5.32-35.506-9.3-36.02-1.772,4.78-8.584,17.351-7.444,32.919,1.173,15.844,9.5,32.525,11.252,37.954-14.2-9.9-42.695-17-59.354-29.884-18.208-14.045-18.725-26.94-20.521-42.426,29-3.331,32.823-22.041,65.393-17.692,11.083,2.349,22.343,8.669,44.512,12.472,22.2,3.815,66.719,4.76,76.939,45.518,9.55-24.882,19.666-62.146,6.411-83.666" transform="translate(442.349 125.29)" fill="#fff"/>
      <path id="Path_312" data-name="Path 312" d="M168.176,61.571c16-10.632,15.007-9.055,24.024-12.821,9.253-3.864,19.807-5.688,24.565-6.916-1.21,8.472-3.974,15.154,3.391,20.985Z" transform="translate(526.511 129.963)" fill="#00396e"/>
      <path id="Path_313" data-name="Path 313" d="M296.574,67.789c14.177-1.708,23.025-14.735,29.886-21.905,8.071-8.427-10.207,36.209-22.731,39.133s-21.752,1.54-28.143-5.068c-6.419-6.6-16.234,6.94-31.27,11.536-13.925,4.25-21.666,14.07-50.072,1.076a60.246,60.246,0,0,0,30.625-4.107c-19.588-8.961-24.107-15.408-21.633-34.656-16.985-10.657-47.255-11.975-76.294-1.326C170.74,28,198.027,25.006,244.473,48.627c21.963,11.166,39.366,20.7,52.1,19.162" transform="translate(397.42 100.73)" fill="#00396e"/>
      <path id="Path_314" data-name="Path 314" d="M162.312,39.83c6.407,1.257,10.042,14.521-2.057,14.55-9.971.016-6.419-16.217,2.057-14.55" transform="translate(482.786 123.363)" fill="#fff"/>
      <path id="Path_315" data-name="Path 315" d="M172.338,51.8c17.105-10.525,35.1-8.447,47.016-5.064,2.962,4.912,2.8,8.69,2.8,8.69-20.455-7.076-49.82-3.626-49.82-3.626" transform="translate(539.541 136.652)" fill="#fff"/>
      <path id="Path_316" data-name="Path 316" d="M148.711,56.458c-.38-9.589,7.559-18.735,7.559-18.735s11.355,4.94,10.281,6.419c-3.672,5.076-7.435,16.727-.33,18.829,12.334,3.634,14.722-5.762,17.956-10.649,2.5-.283,6.749,1.8,9.662,5.31-2.615,3.4-4.486,7.458-6.956,10.024-6.754,6.994-14.28,9.158-25.28,4.357-6.588-2.891-12.628-9.335-12.892-15.556" transform="translate(465.531 117.191)" fill="#fff"/>
      <path id="Path_317" data-name="Path 317" d="M129.862,89.339s-38.155-3.8-46.268,1.885c-3.808-10.271-16.622,7.3-5.366-20.2" transform="translate(230.738 220.631)" fill="#aeb0b3"/>
      <path id="Path_318" data-name="Path 318" d="M18.348,144.589,97.79,47.868h-12.8l.083-37.022h109.8l16.581,44.59,37.779-42.755,79.785-.1L250.325,112.955l-98.381-.062-7.2-27.1L94.791,144.7Z" transform="translate(57.446 33.695)" fill="#fff"/>
      <path id="Path_319" data-name="Path 319" d="M204.5,9.816H87.656l-.021,8.443-.066,28.558L87.549,55.3h8.08L27.575,138.158,16.2,152.01l17.774.025,65.641.1,3.833,0,2.5-2.949,43.558-51.371,4.321,16.254,1.665,6.255,6.386,0,93.172.058,4.028,0,2.507-3.2,72.052-91.9,10.781-13.749-17.324.021-69.264.09-3.722,0-2.483,2.809L219.674,50.628,206.538,15.294Zm-5.771,8.464,17.985,48.373,41.121-46.541,69.268-.086-72.052,91.9-93.172-.057-8.423-31.683L99.623,143.669l-65.641-.094,79.454-96.737H95.913L95.98,18.28H198.731Z" transform="translate(50.704 30.493)" fill="#00396e"/>
      <path id="Path_320" data-name="Path 320" d="M296.815,14.609,229.964,97.232H143.805l-10-35.613L76.277,129.067H23.036s71.99-91.288,78.872-97.111L86.269,30.584c13.631-6.452,18.687-7.873,24.607-9.195a50.457,50.457,0,0,1,8.48-1.556c1.413-.09,3.053-.2,4.837-.164a18.678,18.678,0,0,0,5.147-.251c-6.37-.587-13.032-2.1-19.406-1.671,14.346-5.133,45.025-4.969,64.051-4.333l19.3,54.278,45.062-53.083Z" transform="translate(72.121 40.685)" fill="#00396e"/>
      <path id="Path_321" data-name="Path 321" d="M34.587,154.471l67.781-81.144H89.905V37.665H199.352l17.494,43.186,37.032-42.714,69.78.049-.124,28.353-12.59.053L302.112,77.36,254.96,135.782l-98.269-.1L149.5,110.928l-38.4,43.543Z" transform="translate(108.283 117.01)" fill="#fff"/>
      <path id="Path_322" data-name="Path 322" d="M208.974,36.634H92.558V80.756h7.634L44.047,147.97,32.407,161.9h87.385l2.487-2.821,32.162-36.471,4.193,14.435,1.76,6.061,6.233.008,93.176.094,3.957,0,2.5-3.1,45.921-56.894,7.547-9.2,6.51-.029,8.27-.033.037-8.39.087-19.913.037-8.493-8.373-.008-63.7-.045h-3.775l-2.5,2.875L224.972,76.14,211.1,41.882ZM203.381,45.1l18.985,46.866L262.591,45.57l63.7.045L326.2,65.529l-10.4.045L305.727,77.853l-45.917,56.894-93.176-.094-8.427-29.01-42.15,47.8H50.413L118.193,72.3H100.9V45.1H203.381Z" transform="translate(101.459 113.808)" fill="#00396e"/>
      <path id="Path_323" data-name="Path 323" d="M280.541,51.1c9.608,2.517,9.666,3.146,9.666,3.146l-53.947,66.4-86.7-.008L138.259,87.853l-46.3,51.506H39.291l67.533-81.234H84.06V40.47h94.713L199.566,93.6l44.892-53.182c12.516-2.3,44.917,1.265,44.917,1.265S277.633,42.8,269.9,45.4c9.592.994,15.639-1,27.395,3.593,0,0-16.444.838-16.754,2.1" transform="translate(123.01 123.166)" fill="#00396e"/>
      <path id="Path_324" data-name="Path 324" d="M181.9,127.3l-55.711,54.056H42.313l77.7-84.047H107.619V61.639H185.4v.1l46.161.119,21.153,42.595,86.365-42.484h95.118L404.237,97.609H390.255l-37.618,43.231-1.921-.029c-.843-.012-1.706-.02-2.6-.02-25.742,0-63.121,4.813-75.592,11.716l-5.444-6.1c.174-.259.351-.522.529-.78l-71.28,46.939Z" transform="translate(132.471 191.49)" fill="#fff"/>
      <path id="Path_325" data-name="Path 325" d="M196.869,60.608H110.744v44.13h6.935l-64.522,69.8L39.981,188.79h95.184l2.421-2.349,49.16-47.7,11.5,52.024,2.623,11.872,10.062-6.624,65.207-42.944,5.68,6.357c11.578-6.406,48.4-11.2,73.593-11.2.872,0,1.714.008,2.536.021l3.842.058,2.54-2.92,35.1-40.336h14.028l2.5-2.973L438.8,74.9l11.727-13.955H345.414l-1.723.85-81.8,40.241-18.15-36.55-2.3-4.641-5.126-.016-39.436-.1Zm-8.344,8.464v.094l47.759.123,21.847,43.995,89.2-43.88h85.126L409.613,96.583H395.672l-37.594,43.2c-.863-.016-1.751-.021-2.664-.021-23.7,0-63.53,4.452-77.591,12.234a182.462,182.462,0,0,1,18.316-22.192l-89.748,59.108-14.734-66.652-59.842,58.064H59.242l77.7-84.047H119.088V69.072Z" transform="translate(125.171 188.288)" fill="#00396e"/>
      <path id="Path_326" data-name="Path 326" d="M105.265,166.123l64.666-64.3,15.379,68.5,92.478-56.114-11.8,19.384c29.753-6.115,41.369-6.349,66.178-7.84l37.16-43.535,14.21.238,16.027-17.95-75.394.222-91.809,44.188L209.512,63.957c-14.813.3-52.828-1.754-67.991,1.692L163.835,68.2c-23.206,4.813-36.3,7.072-52.795,15.306l16.61.509c-16.3,8.838-22.892,18.78-29.031,25.626l-51.1,56.488Z" transform="translate(148.767 197.649)" fill="#00396e"/>
      <path id="Path_327" data-name="Path 327" d="M75.833,190.522l69.119-86.561c6.473-8.107,13.64-15.141,35.846-19.047,14.082-2.485,33.306-2.751,40.919-2.751,2.065,0,3.267.021,3.267.021l72.874,1.643,30.79,24.328-22.583,26.459-83.952-.279,8.521-11.326-15.527-.1-41.927,52.853,15.193.062,12.524-15.6,85.022.386-26.87,32.948-.264.218c-16.039,13.285-32.41,20.414-48.656,21.186l-103.482.542Z" transform="translate(237.413 255.252)" fill="#fff"/>
      <path id="Path_328" data-name="Path 328" d="M225.436,81.3h0c-7.7,0-27.164.271-41.518,2.8-21.265,3.745-29.745,10.024-37.953,20.308l-6.51,8.148-60.4,75.649-4.407,5.519,5.469,4.435,27.118,21.987,1.925,1.561,2.458-.012,102.107-.538h.145l.145,0c17.01-.809,34.066-8.2,50.7-21.979l.525-.435.434-.53,21.971-26.94L297,159.783l-14.7-.066-76.009-.345-3.325-.016-2.1,2.616-10.426,12.985-6.3-.025,36.342-45.814,6.874.041-.041.057-8.5,11.289,14.007.049,75.352.246,3.189.012,2.09-2.448L332.6,115.944l4.8-5.618-5.779-4.571-26.99-21.326-1.818-1.437-2.3-.049-71.7-1.618c-.041,0-1.264-.021-3.362-.021m0,7.055c2.028,0,3.21.021,3.21.021l71.7,1.614,26.99,21.33L308.2,133.746l-75.352-.251,8.509-11.306-24.189-.152-47.507,59.9,24.078.094,12.528-15.6,76.009.345L260.3,193.716c-15.11,12.517-30.613,19.63-46.619,20.39l-102.107.534L84.46,192.653,144.859,117l6.514-8.152c6.522-8.172,13.26-14.189,33.735-17.794,13.838-2.439,32.847-2.7,40.328-2.7" transform="translate(233.693 252.584)" fill="#00396e"/>
      <path id="Path_329" data-name="Path 329" d="M236.7,111l-9.711,12h68.186l15.441-19.655L287.36,85.964l-64.588-2.135c-26.833,1.741-44.938,4.513-57.057,8.468l16.494-.1C154.36,96.942,139.4,106.206,130.03,115.04l11.07-4.415c-7.584,5.807-12.764,12.287-20.055,19.113-15.606,19.334-27.023,34.02-42.629,54.114l24.243,19.839,84.622-.435c18.985,1.659,41.728-3.852,55.533-16.443l21.149-24.4-68.475-.645-11.921,16.049-31.819-.513,52.158-66.5Z" transform="translate(245.502 260.428)" fill="#00396e"/>
      <rect id="Rectangle_178" data-name="Rectangle 178" width="861.269" height="150" transform="translate(0.002 99.416)" fill="none"/>
    </g>
  </g>
</svg>
