<svg xmlns="http://www.w3.org/2000/svg" xmlns:xlink="http://www.w3.org/1999/xlink" width="198.172" height="68.468" viewBox="0 0 198.172 68.468">
  <defs>
    <clipPath id="clip-path">
      <rect id="Rectangle_2018" data-name="Rectangle 2018" width="198.172" height="68.468" fill="none"/>
    </clipPath>
  </defs>
  <g id="Group_3236" data-name="Group 3236" transform="translate(0 0)">
    <g id="Group_3237" data-name="Group 3237" transform="translate(0 0)">
      <g id="Group_3236-2" data-name="Group 3236" clip-path="url(#clip-path)">
        <path id="Path_3584" data-name="Path 3584" d="M121.734,23.059h1.707V9.4h2.268V7.922h-6.265V9.4h2.335v9.3h-.2L114.142,7.922h-4.9V9.4h2.268V21.217h-2.268V22.7h6.266V21.217h-2.336V10.909h.2Zm-23.425-8.22V9.4h2.65c2.134,0,2.852.92,2.852,2.538,0,1.819-.718,2.9-3.122,2.9Zm0,1.347h2.56c2.134,0,2.47.786,2.516,2.313l.044,1.8a2.4,2.4,0,0,0,2.628,2.65,2.719,2.719,0,0,0,2.516-2.044l-.989-.472c-.359.651-.628.943-.988.943-.4,0-.607-.27-.674-1.011l-.135-1.639c-.112-1.55-.786-2.673-3.076-3.167v-.2c2.852-.472,3.75-2.066,3.75-3.593,0-1.864-1.212-3.841-5.727-3.841H93.5V9.4H96V21.217H93.5V22.7h7.231V21.217H98.309ZM78.8,22.7H92.076V17.444H91c-.831,3.077-1.078,3.773-3.054,3.773H83.609v-5.48h1.55c1.662,0,1.909.224,2.29,2.358h1.191V12.212H87.45c-.426,2.043-.628,2.268-2.29,2.268h-1.55V9.4h4.424c1.73,0,1.954.674,2.763,3.324h1.078V7.922H78.8V9.4H81.3V21.217H78.8Zm-17.511,0h6.94V21.217H66.1V15.693h6.76v5.524H70.725V22.7h6.94V21.217H75.172V9.4h2.493V7.922h-6.94V9.4h2.134V14.39H66.1V9.4h2.134V7.922h-6.94V9.4h2.492V21.217H61.293Zm-11.7,0h7.524V21.217h-2.6V9.179H55.5c1.976,0,2.4.651,3.5,4h1.056V7.922H46.647v5.255H47.7c1.1-3.347,1.527-4,3.5-4h.988V21.217H49.589Zm-12.862-7.86V9.4h2.65c2.134,0,2.853.92,2.853,2.538,0,1.819-.719,2.9-3.123,2.9Zm0,1.347h2.56c2.134,0,2.471.786,2.516,2.313l.045,1.8a2.4,2.4,0,0,0,2.628,2.65A2.719,2.719,0,0,0,46.99,20.9L46,20.431c-.36.651-.629.943-.989.943-.4,0-.606-.27-.674-1.011l-.134-1.639c-.113-1.55-.787-2.673-3.077-3.167v-.2c2.852-.472,3.751-2.066,3.751-3.593,0-1.864-1.213-3.841-5.727-3.841H31.921V9.4h2.492V21.217H31.921V22.7h7.232V21.217H36.727Zm-12.6,5.39c-2.942,0-4.536-2.358-4.536-6.265s1.595-6.266,4.536-6.266,4.536,2.336,4.536,6.266-1.595,6.265-4.536,6.265m0,1.483a7.467,7.467,0,0,0,7.232-7.748c0-4.537-3.211-7.749-7.232-7.749a7.482,7.482,0,0,0-7.232,7.749c0,4.514,3.211,7.748,7.232,7.748m-11.636,0h1.707V9.4h2.268V7.922H10.2V9.4h2.335v9.3h-.2L4.9,7.922H0V9.4H2.268V21.217H0V22.7H6.266V21.217H3.931V10.909h.2Z" transform="translate(0 0.075)" fill="#313133"/>
        <path id="Path_3585" data-name="Path 3585" d="M116.527,40.223c-1.8,0-2.9-1.3-2.9-4.132s.921-4.109,2.694-4.109c1.8,0,2.9,1.28,2.9,4.109s-.943,4.132-2.694,4.132m-.09,1.213c3.054,0,5.12-2.246,5.12-5.39,0-3.122-1.954-5.278-5.12-5.278a5.026,5.026,0,0,0-5.143,5.368c0,3.144,1.931,5.3,5.143,5.3m-10.636,0a4.335,4.335,0,0,0,4.447-3.615h-1.079a2.932,2.932,0,0,1-2.808,2.2c-2.088,0-3.188-1.483-3.188-4.043,0-2.672,1.325-4.11,2.9-4.11a2.32,2.32,0,0,1,2.066.9,1.622,1.622,0,0,0-.876,1.347,1.314,1.314,0,0,0,1.393,1.37c.943,0,1.459-.763,1.459-1.819,0-1.348-1.707-2.9-3.953-2.9a5.247,5.247,0,0,0-5.322,5.48c0,2.965,1.819,5.188,4.964,5.188m-11.327-.2h5.84V39.752H98.45v-8.8H94.474V32.43h1.864v7.322H94.474Zm2.785-12.442a1.4,1.4,0,0,0,1.46-1.5,1.386,1.386,0,0,0-1.46-1.483A1.421,1.421,0,0,0,95.8,27.332a1.368,1.368,0,0,0,1.459,1.46m-9.412,3.593V30.948h-5.1V32.43h1.19l3.145,3.818-3.167,3.5H82.749v1.483h4.177V39.8H85.489l2.426-2.763L90.047,39.8H88.476v1.437h4.986V39.752H92.293l-3.076-3.84,3.144-3.482h1.1V30.948h-4.2v1.437h1.483l-2.358,2.74-2.134-2.74Zm-10.273-.427c1.572,0,2.224,1.3,2.38,3.212H75.036c.18-2.314,1.123-3.212,2.538-3.212m4.536,4.268c.068-2.718-1.3-5.457-4.379-5.457A5.128,5.128,0,0,0,72.678,36.2c0,2.964,1.774,5.232,4.918,5.232a4.252,4.252,0,0,0,4.47-3.324H80.988a2.882,2.882,0,0,1-2.83,1.909c-1.976,0-3.076-1.257-3.144-3.8ZM52.14,41.234h6.041V39.752H56.07V28.119h.2l4.806,13.116h1.167l4.739-13.116h.2V39.752H65.211v1.483h6.67V39.752H69.5V27.939h2.381V26.456h-6L62.066,37.394H62L58.249,26.456H52.14v1.483h2.268V39.752H52.14Zm-9.815-8.8V30.948H36.98V32.43h1.392l.449,1.3-2.268,5.66h-.09l-2.2-6.963h1.685V30.948H30.669V32.43h1.438l3.032,8.94h1.976L39.451,35.6l1.976,5.773h2.066l3.1-8.94h1.3V30.948H43.561V32.43H45.02l-2.178,6.963h-.09L40.438,32.43Zm-16.563-.472c1.572,0,2.224,1.3,2.381,3.212H23.224c.18-2.314,1.123-3.212,2.538-3.212M30.3,36.226c.067-2.718-1.3-5.457-4.38-5.457A5.128,5.128,0,0,0,20.866,36.2c0,2.964,1.774,5.232,4.919,5.232a4.251,4.251,0,0,0,4.469-3.324H29.176a2.884,2.884,0,0,1-2.83,1.909c-1.976,0-3.077-1.257-3.145-3.8ZM16.558,41.594h1.707V27.939h2.268V26.456H14.268v1.483H16.6v9.3h-.2L8.967,26.456h-4.9v1.483H6.339V39.752H4.071v1.483h6.266V39.752H8V29.444h.2Z" transform="translate(0.04 0.256)" fill="#313133"/>
      </g>
    </g>
    <text id="_" data-name=" " transform="translate(120.981 39.431)" fill="#313133" font-size="24" font-family="Sentinel-Medium, Sentinel" font-weight="500"><tspan x="0" y="0"> </tspan></text>
    <g id="Group_3239" data-name="Group 3239" transform="translate(0 0)">
      <g id="Group_3238" data-name="Group 3238" clip-path="url(#clip-path)">
        <path id="Path_3586" data-name="Path 3586" d="M92.342,50.491c1.571,0,2.223,1.3,2.38,3.212H89.8c.18-2.314,1.123-3.212,2.538-3.212m4.536,4.268c.068-2.718-1.3-5.457-4.38-5.457a5.128,5.128,0,0,0-5.053,5.435c0,2.964,1.773,5.232,4.918,5.232a4.251,4.251,0,0,0,4.469-3.324H95.755a2.884,2.884,0,0,1-2.83,1.909c-1.976,0-3.077-1.257-3.145-3.8Zm-15.13,7.614c-2.178,0-2.7-.741-2.7-1.5,0-.921.629-1.393,1.976-1.393h2.516c1.167,0,1.572.494,1.572,1.213,0,1.033-1.393,1.685-3.369,1.685m.2-7.479c-1.3,0-2.088-.674-2.088-2.268s.651-2.29,1.931-2.29A2.038,2.038,0,0,1,83.859,52.6c0,1.527-.651,2.29-1.909,2.29m4.11-2.336A3.035,3.035,0,0,0,84.4,49.93c.382-.7,1.055-1.235,1.459-1.145a1.019,1.019,0,0,0-.022.247.874.874,0,0,0,.966.921,1.068,1.068,0,0,0,1.033-1.123,1.318,1.318,0,0,0-1.46-1.281,3.5,3.5,0,0,0-2.875,2,5.434,5.434,0,0,0-1.617-.246c-2.38,0-4.2,1.213-4.2,3.369a2.9,2.9,0,0,0,1.842,2.762,2.284,2.284,0,0,0-1.931,1.842c0,.741.426,1.415,1.639,1.819v.112a2.247,2.247,0,0,0-2.156,2c0,1.348,1.774,2.314,4.536,2.314,3.594,0,5.345-1.549,5.345-3.369,0-1.437-.921-2.492-3.279-2.492H80.961c-1.123,0-1.5-.36-1.5-.9a.968.968,0,0,1,1.079-.9c.426,0,.853.067,1.347.067,2.38,0,4.178-1.19,4.178-3.369M71.74,50.491c1.572,0,2.224,1.3,2.381,3.212H69.2c.18-2.314,1.123-3.212,2.538-3.212m4.537,4.268c.067-2.718-1.3-5.457-4.38-5.457a5.128,5.128,0,0,0-5.054,5.435c0,2.964,1.774,5.232,4.918,5.232a4.251,4.251,0,0,0,4.47-3.324H75.154a2.884,2.884,0,0,1-2.831,1.909c-1.976,0-3.076-1.257-3.144-3.8ZM60.459,59.767H66.3V58.285H64.434V44.338H60.459v1.617h1.864v12.33H60.459Zm-6.654,0h5.839V58.285H57.78V44.338H53.805v1.617h1.863v12.33H53.805Zm-5.529-1.011c-1.8,0-2.9-1.3-2.9-4.132s.921-4.109,2.694-4.109c1.8,0,2.9,1.28,2.9,4.109s-.943,4.132-2.694,4.132m-.09,1.213c3.054,0,5.12-2.246,5.12-5.39,0-3.122-1.954-5.278-5.12-5.278a5.026,5.026,0,0,0-5.143,5.368c0,3.144,1.931,5.3,5.143,5.3M35.3,60.127c3.459,0,6.131-2.29,6.513-6.266H40.217c-.336,2.561-1.886,4.694-4.559,4.694-3.009,0-4.694-2.336-4.694-6.355,0-4.358,1.931-6.087,4.424-6.087,1.976,0,3.5,1.707,4.514,4.379H41.25V44.7H39.769l-.4,1.661a5.349,5.349,0,0,0-4.109-1.729c-3.8,0-6.985,3.527-6.985,7.7,0,4.334,2.808,7.793,7.03,7.793" transform="translate(0.28 0.439)" fill="#313133"/>
        <path id="Path_3587" data-name="Path 3587" d="M167.855,24.216c.849.276,1.173,1.061,1.615,1.178.6.156,1.5-.677,2.42-1.44s2.247-1.717,4.092.158c1.634,1.659,2.771,2.348,3.386,2.271,1.5-.183,5.159-3.061,5.994-3.273a6.615,6.615,0,0,1,2.686.18,35.873,35.873,0,0,1,1.383,5.524,19.848,19.848,0,0,1,.19,4.575,8.294,8.294,0,0,0-3.7,1.244c-1.86,1.041-3.069,2.664-3.938,2.69-.956.03-1.591-.62-2.813-1.581s-2.192-2.319-5.229-.77c-2.936,1.5-6.279,4.073-6.584,4.073a8,8,0,0,1-1.59-.7,1.241,1.241,0,0,0,.18-.927,6.647,6.647,0,0,0-1.369-1.273c-.309-.257.23-.769.034-1.444a12.564,12.564,0,0,0-1.982-3.743,15.866,15.866,0,0,0-2.362-2.617s6.863-4.358,7.59-4.119" transform="translate(1.586 0.228)" fill="#00376d"/>
        <path id="Path_3588" data-name="Path 3588" d="M150.762,36.011c.867.151,1.036-.266,1.114-.635a8.929,8.929,0,0,0-.245-2.423s-.847.426-2.211,1.123a38.97,38.97,0,0,1-5.76,2.411c-3.219.9-4.793-.627-6.107-1.179a30.113,30.113,0,0,0,1.367,6.151,23.4,23.4,0,0,0,3.14,5.721c2.281-2.064,4.586-1.164,6.572-.406a6.1,6.1,0,0,0,1.8.584,4.813,4.813,0,0,0,1.961-.342,10.521,10.521,0,0,0,2.671-1.328,8.023,8.023,0,0,0,.69-.549s-.713-.661-1.183-1.073c-.671-.586-.763-.868-1.871-.852a11.765,11.765,0,0,1-3-.454c-.431-.171-.951-.332-1.286-.429-1.16-.2-1.833-.2-2.01.049s.26.775.133,1-.615.118-1.011-.011a2,2,0,0,1-1.37-1.5,2.832,2.832,0,0,1,1.055-2.455c.55-.435.944-.569,1.173-.9s.483-1.049.965-1.363,2.223-1.343,3.417-1.134" transform="translate(1.361 0.326)" fill="#00376d"/>
        <path id="Path_3589" data-name="Path 3589" d="M170.735,41.02c-1.326-.945-2.526-1.487-2.321-1.607,1.12-.661,4.427-2.954,5.575-3.463,1.022-.456,2.51-1.47,4.588.661,1.831,1.876,3.445,2.1,4.663,1.24,1.365-.966,3.726-3.537,6.288-3.621a27.555,27.555,0,0,1-2.016,8.233c-1.189,2.7-3.7,6.6-4.812,7.438a2.511,2.511,0,0,1-1.184-.635c-.019-1.353-.534-1.442-1.158-2.012s-.03-.817-.494-1.57c-.646-1.051-1.537-.63-1.652-1.058s.163-1.151-.987-1.274a19.985,19.985,0,0,1-4.274-.482c-.323-.132-1.222-1.14-2.216-1.849" transform="translate(1.666 0.339)" fill="#00376d"/>
        <path id="Path_3590" data-name="Path 3590" d="M174.492,50.378l-.487-.22a1.2,1.2,0,0,1,.218.474,1.82,1.82,0,0,1-2.236,1.633,19.714,19.714,0,0,1-2.045-.73,6.418,6.418,0,0,1-3.077-.776c-1.392-.841-2.517-3.182-3-3.362a17.459,17.459,0,0,0-2.72-.06,7.27,7.27,0,0,1-3.1-.843c-.825-.382-1.6-.826-1.6-.826a21.962,21.962,0,0,1-2.439,1.591,6.343,6.343,0,0,1-3.577.911,7.793,7.793,0,0,1-2.582-.81,10.714,10.714,0,0,0-2.023-.678,3.842,3.842,0,0,0-3.225,1.194,26.192,26.192,0,0,0,35.954,5.741c.178-.176-.456-.866-1.332-1.574a14.949,14.949,0,0,0-2.731-1.664" transform="translate(1.411 0.452)" fill="#00376d"/>
        <path id="Path_3591" data-name="Path 3591" d="M144.042,54.809a.693.693,0,1,1,1.067.883.7.7,0,0,1-.981.089.689.689,0,0,1-.087-.972" transform="translate(1.424 0.54)" fill="#00376d"/>
        <path id="Path_3592" data-name="Path 3592" d="M148.446,57.644c.138.088.261.166.385-.031s.194-.312.341-.22.128.161.082.235c-.118.188-.239.327-.358.515s-.191.36-.309.546c-.046.074-.09.127-.245.029s-.069-.215.047-.4c.133-.211.011-.288-.128-.375l-.6-.375-.693,1.1c-.184.294-.2.389.182.659l.57.357a.728.728,0,0,0,.658.116.822.822,0,0,1,.538-.061c.1.061.133.151.1.208-.073.115-.27.138-.441.271-.305.229-.386.213-.476.158a1.192,1.192,0,0,1-.128-.1,1.436,1.436,0,0,0-.17-.129l-1.456-.913c-.09-.057-.2-.115-.312-.173s-.222-.117-.312-.174c-.147-.093-.129-.16-.067-.258.1-.164.222-.009.395.007.136.018.193-.074.349-.325l1.375-2.19c.184-.3.277-.441.163-.514-.051-.031-.135-.039-.193-.076-.074-.044-.081-.108-.009-.221.062-.1.115-.145.261-.053a1.305,1.305,0,0,1,.17.128,1.326,1.326,0,0,0,.162.124l1.382.866a1.9,1.9,0,0,0,.2.1,1.434,1.434,0,0,1,.182.091c.067.041.14.087.068.384a2.825,2.825,0,0,1-.112.544c-.037.057-.167.044-.247-.006-.123-.078-.067-.2-.105-.453-.028-.223-.133-.345-.429-.531-.6-.379-.67-.42-.824-.175l-.588.939Z" transform="translate(1.441 0.547)" fill="#00376d"/>
        <path id="Path_3593" data-name="Path 3593" d="M151.3,62.054a2.143,2.143,0,0,1-.771-.643.156.156,0,0,1-.191.075c-.271-.129-.216-.179,0-.747.1-.251.131-.47.17-.557a.152.152,0,0,1,.2-.1c.149.067.221.1.168.432-.049.306-.059.953.453,1.18a.853.853,0,0,0,1.016-.515c.243-.556-.062-.943-.374-1.312-.413-.453-.791-.913-.535-1.5a1.106,1.106,0,0,1,1.434-.51,2.077,2.077,0,0,1,.691.588.29.29,0,0,1,.2,0c.176.077.039.27-.01.5a4.282,4.282,0,0,1-.129.511.177.177,0,0,1-.242.074c-.247-.108.008-.5-.176-.9a.809.809,0,0,0-.393-.425.519.519,0,0,0-.675.242c-.205.468.13.688.6,1.337a1.4,1.4,0,0,1,.293,1.5,1.336,1.336,0,0,1-1.736.767" transform="translate(1.486 0.572)" fill="#00376d"/>
        <path id="Path_3594" data-name="Path 3594" d="M156.8,62.9c-.075.3-.1.393.011.48.132.112.325.089.28.278-.028.112-.062.173-.23.131-.206-.05-.291-.112-.583-.182s-.4-.06-.6-.107c-.167-.041-.169-.112-.142-.224.044-.187.209-.078.377-.116.135-.026.16-.13.231-.419l.633-2.586c.086-.347.059-.443-.167-.5-.607-.148-.73-.059-.939.108-.173.135-.223.264-.4.22-.085-.021-.2-.058-.168-.172.023-.093.22-.165.332-.335.162-.259.168-.4.327-.366.515.127,1.039.295,1.553.421.657.162,1.331.286,1.988.445.1.025.18.074.158.169-.028.111-.208.117-.327.276-.277.36-.323.348-.472.313-.131-.033-.144-.106-.123-.19.024-.1.18-.214.2-.29.012-.056-.058-.092-.18-.121l-.553-.136c-.354-.086-.472-.1-.574.317Z" transform="translate(1.535 0.585)" fill="#00376d"/>
        <path id="Path_3595" data-name="Path 3595" d="M159.968,64.371a.425.425,0,0,1,.1-.843.425.425,0,0,1-.1.843" transform="translate(1.579 0.629)" fill="#00376d"/>
        <path id="Path_3596" data-name="Path 3596" d="M164.394,63.88c0,.227.077.35.408.346.2,0,.285.02.285.151,0,.1-.048.139-.142.14-.25,0-.413-.024-.787-.02s-.526.034-.811.037c-.1,0-.147-.035-.147-.138,0-.138.1-.154.284-.156.365-.005.431-.13.427-.356l-.028-2.8a.152.152,0,0,0-.157-.167c-.24,0-.262.179-.482.18-.086,0-.1-.093-.1-.152,0-.219.218-.184.867-.506a1.084,1.084,0,0,1,.269-.113c.053,0,.076.029.076.087Z" transform="translate(1.615 0.597)" fill="#00376d"/>
        <path id="Path_3597" data-name="Path 3597" d="M167.5,64.949c-.493.067-.594.081-.615-.065s.354-.388.791-.816a3.394,3.394,0,0,0,1.066-2.559,1.309,1.309,0,0,0-1.369-1.167,1.018,1.018,0,0,0-.833,1.213c.089.661.58,1.126,1.072,1.06a.6.6,0,0,0,.589-.679c-.008-.065-.04-.135-.044-.171s-.012-.088.039-.094c.093-.013.206.164.222.287a.939.939,0,0,1-.9.962,1.229,1.229,0,0,1-1.389-1.083,1.544,1.544,0,0,1,1.389-1.767,1.579,1.579,0,0,1,1.671,1.5,3.122,3.122,0,0,1-.442,1.867,6.34,6.34,0,0,1-1.251,1.514" transform="translate(1.644 0.595)" fill="#00376d"/>
        <path id="Path_3598" data-name="Path 3598" d="M173.2,61.176c-.384-1.3-1.045-1.882-1.669-1.7-.519.155-.742.929-.465,1.863.364,1.235.992,1.858,1.631,1.67.6-.176.771-.93.5-1.836m-.542,2.122c-.841.249-1.626-.366-1.954-1.475-.356-1.208-.047-2.361.864-2.629.861-.258,1.639.3,1.995,1.508.351,1.187.1,2.3-.9,2.6" transform="translate(1.688 0.585)" fill="#00376d"/>
        <path id="Path_3599" data-name="Path 3599" d="M176.947,62.348c-.45.212-.541.254-.6.122s.221-.475.51-1.015a3.4,3.4,0,0,0,.248-2.76,1.309,1.309,0,0,0-1.656-.7,1.016,1.016,0,0,0-.43,1.408,1.089,1.089,0,0,0,1.342.687.6.6,0,0,0,.356-.823c-.027-.059-.078-.116-.094-.149s-.037-.079.008-.1c.086-.04.246.095.3.207a.939.939,0,0,1-.568,1.188,1.228,1.228,0,0,1-1.646-.617,1.54,1.54,0,0,1,.793-2.1,1.578,1.578,0,0,1,2.042.924,3.124,3.124,0,0,1,.139,1.915,6.277,6.277,0,0,1-.74,1.819" transform="translate(1.727 0.57)" fill="#00376d"/>
        <path id="Path_3600" data-name="Path 3600" d="M179.362,58.183a.692.692,0,1,1,.95.212.687.687,0,0,1-.95-.212" transform="translate(1.774 0.566)" fill="#00376d"/>
        <path id="Path_3601" data-name="Path 3601" d="M140.981,49.326a.19.19,0,0,1,.266,0c.1.114.059.372.034.856l-.342,3.778,1.762-1.545c.233-.205.283-.249.265-.4-.043-.168-.215-.261-.07-.387.087-.078.15-.107.266.024.094.108.142.22.276.373.094.109.252.228.36.352s.077.189-.01.265c-.143.127-.215-.055-.375-.12-.127-.055-.206.015-.431.212l-1.942,1.706c-.168.147-.306.267-.2.473.064.188.248.295.1.423-.086.077-.149.106-.264-.024l-.314-.418c-.186-.21-.176-.36-.146-.693l.36-3.948-1.813,1.59c-.225.2-.305.269-.266.4.038.16.215.262.072.389-.088.076-.152.107-.266-.025s-.207-.294-.3-.4c-.133-.152-.238-.213-.334-.322-.115-.13-.076-.19.01-.265.145-.128.215.055.375.119.149.037.2-.008.431-.211Z" transform="translate(1.362 0.488)" fill="#00376d"/>
        <path id="Path_3602" data-name="Path 3602" d="M136.626,45.847a1.842,1.842,0,0,0-.9,2.46,1.591,1.591,0,0,0,2.292.544,1.812,1.812,0,0,0,.87-2.477,1.57,1.57,0,0,0-2.259-.527m2.667.463a2.186,2.186,0,0,1-.691,3.03,2.388,2.388,0,0,1-3.271-.943,2.14,2.14,0,0,1,.708-3.038,2.3,2.3,0,0,1,3.254.951" transform="translate(1.336 0.446)" fill="#00376d"/>
        <path id="Path_3603" data-name="Path 3603" d="M134.139,44.252c-.082.029-.236.084-.214.147.032.09.144.123.173.205a.2.2,0,0,1-.142.233c-.136.047-.225-.033-.372-.36s-.284-.607-.487-1.19c-.291-.827-.089-1.533.53-1.749a1.235,1.235,0,0,1,1.4.643,2.493,2.493,0,0,1,.257-.7c.591-.76,1.121-1,1.042-1.223-.02-.055-.208.02-.269-.151a.179.179,0,0,1,.095-.226c.226-.081.408.173.437.254.318.911-.879,1.727-1.184,2.223-.182.3.041.467-.215.555-.1.036-.176-.009-.227-.155l-.078-.218a.777.777,0,0,0-.99-.379.8.8,0,0,0-.5,1.115c.136.392.29.42.526.336l2.63-.921c.293-.1.384-.134.4-.272.021-.171-.1-.322.08-.386.109-.038.179-.043.236.121.071.2.067.3.165.587s.17.37.237.56c.058.164,0,.2-.11.242-.18.064-.179-.131-.3-.251-.095-.1-.2-.064-.479.034Z" transform="translate(1.316 0.395)" fill="#00376d"/>
        <path id="Path_3604" data-name="Path 3604" d="M135.152,37.416c.3-.055.4-.072.434-.206.047-.167-.052-.334.138-.369.114-.02.184-.013.215.156.037.209.017.312.07.607s.109.391.147.59c.03.172-.032.2-.147.223-.19.034-.155-.158-.259-.3-.079-.113-.184-.094-.479-.041l-2.619.476c-.35.065-.428.126-.387.355.113.615.243.69.483.813.193.1.33.1.364.277.015.086.025.2-.088.222-.095.017-.24-.132-.441-.166-.3-.043-.438.012-.47-.149-.094-.521-.154-1.07-.247-1.592-.121-.663-.283-1.332-.4-2-.02-.1-.008-.195.087-.212.114-.02.193.141.387.185.44.106.45.154.478.3.023.134-.037.175-.123.19-.1.017-.268-.08-.345-.066-.057.012-.062.091-.039.213l.1.559c.066.362.107.471.523.395Z" transform="translate(1.301 0.358)" fill="#00376d"/>
        <path id="Path_3605" data-name="Path 3605" d="M134.707,30.53c.309,0,.375,0,.462-.128.077-.155.009-.337.2-.338.115,0,.183.019.183.192,0,.212-.035.31-.033.608s.041.4.041.607c0,.175-.067.194-.183.194-.193,0-.126-.182-.2-.336-.059-.125-.166-.124-.464-.122l-1.236.007.015,2.556,1.236-.007c.307,0,.4,0,.462-.128.078-.155.008-.336.2-.338.113,0,.181.018.183.193,0,.211-.036.307-.036.608s.043.4.043.607c0,.173-.068.194-.183.194-.192,0-.126-.183-.2-.337-.061-.125-.166-.124-.464-.123l-2.587.015c-.3,0-.4,0-.462.128-.077.155-.007.337-.2.338-.115,0-.183-.018-.185-.192,0-.2.037-.319.035-.608s-.041-.395-.041-.608c0-.173.067-.194.183-.194.193,0,.124.184.2.337.09.125.157.125.466.123l.964-.006-.013-2.557-.966.005c-.3,0-.4,0-.461.129-.077.155-.009.337-.2.338-.115,0-.185-.018-.185-.192,0-.2.037-.318.034-.607s-.04-.4-.04-.608c0-.175.065-.194.182-.195.192,0,.126.183.205.336.087.125.155.125.464.123Z" transform="translate(1.299 0.298)" fill="#00376d"/>
        <path id="Path_3606" data-name="Path 3606" d="M133.545,26.918c.026-.162.052-.3-.177-.342s-.363-.062-.333-.232.1-.178.184-.165c.219.036.394.1.614.132s.4.038.622.076c.085.014.151.036.121.216s-.172.147-.391.11c-.247-.041-.271.1-.3.264l-.118.695,1.285.216c.341.059.435.033.541-.418l.112-.667a.719.719,0,0,0-.147-.65c-.195-.228-.274-.4-.261-.474.019-.115.09-.181.156-.171.133.023.232.2.417.306.33.193.346.274.329.377a1,1,0,0,1-.048.16c-.019.067-.038.13-.053.205l-.287,1.694c-.015.106-.028.231-.039.356s-.021.251-.04.353c-.028.172-.1.182-.212.162-.19-.033-.093-.2-.143-.367-.036-.133-.141-.151-.437-.2l-2.549-.429c-.341-.058-.513-.087-.534.045-.012.058.014.14,0,.207-.015.086-.068.115-.2.092-.115-.018-.18-.048-.149-.22a1.659,1.659,0,0,1,.055-.206,1.518,1.518,0,0,0,.054-.2l.271-1.608a1.657,1.657,0,0,0,.017-.222,1.851,1.851,0,0,1,.015-.2c.013-.077.026-.163.329-.21a2.84,2.84,0,0,1,.545-.1c.067.011.1.134.088.23-.023.142-.16.138-.379.269-.2.114-.268.259-.326.6-.119.7-.131.781.155.829l1.095.185Z" transform="translate(1.301 0.253)" fill="#00376d"/>
        <path id="Path_3607" data-name="Path 3607" d="M133.117,23.589c-.081-.027-.237-.079-.259-.013-.03.091.039.185.013.266a.2.2,0,0,1-.258.1c-.137-.045-.159-.165-.074-.514s.144-.652.337-1.239c.275-.833.865-1.269,1.489-1.062.724.238.722.979.719,1.364a2.423,2.423,0,0,1,.629-.4c.932-.241,1.5-.106,1.572-.336.019-.055-.177-.108-.12-.283a.179.179,0,0,1,.213-.122c.231.075.219.386.191.469-.3.916-1.747.836-2.291,1.042-.328.126-.253.4-.51.308-.1-.03-.134-.113-.087-.261l.074-.219a.783.783,0,0,0-.555-.9.8.8,0,0,0-1.076.581c-.129.393-.026.509.213.587l2.647.874c.293.1.386.126.48.025.12-.122.114-.317.3-.257.109.036.168.076.113.24-.068.2-.134.281-.228.565s-.088.4-.152.591c-.055.165-.125.162-.234.124-.183-.061-.063-.212-.087-.385-.016-.136-.117-.17-.4-.263Z" transform="translate(1.311 0.209)" fill="#00376d"/>
        <path id="Path_3608" data-name="Path 3608" d="M139.766,17.276a.2.2,0,0,1,.093.25c-.072.135-.328.183-.791.327l-3.664.986,2.061,1.118c.272.147.33.18.468.111.139-.1.169-.292.338-.2.1.055.152.1.069.256-.069.128-.159.212-.254.389-.068.127-.127.315-.205.458s-.152.138-.252.084c-.17-.092-.022-.221-.017-.394.008-.137-.085-.188-.348-.331L134.992,19.1c-.2-.106-.355-.193-.511-.026-.157.124-.194.333-.365.242-.1-.056-.15-.1-.069-.257l.283-.438c.133-.246.278-.289.6-.379l3.826-1.027-2.119-1.151c-.264-.141-.357-.193-.468-.11-.136.091-.169.293-.338.2-.1-.056-.153-.1-.07-.257s.205-.294.275-.421c.1-.179.116-.3.186-.426.083-.154.152-.138.252-.083.17.092.024.22.017.393.016.151.075.185.346.331Z" transform="translate(1.326 0.148)" fill="#00376d"/>
        <path id="Path_3609" data-name="Path 3609" d="M145.179,11.043a.194.194,0,0,1,.017.267c-.109.108-.369.078-.852.081l-3.792-.126,1.644,1.671c.217.22.265.27.415.242.163-.054.246-.23.382-.092.082.083.115.143-.009.266-.1.1-.213.156-.358.3-.1.1-.213.265-.33.38s-.185.087-.266,0c-.135-.137.043-.216.1-.381.047-.13-.027-.2-.235-.419l-1.815-1.842c-.153-.158-.284-.288-.482-.175-.184.074-.283.265-.417.126-.081-.083-.115-.142.009-.265l.4-.339c.2-.2.349-.194.685-.184l3.961.134-1.69-1.72c-.211-.213-.284-.289-.416-.242-.157.046-.246.23-.382.092-.082-.082-.115-.143.009-.266s.28-.223.383-.324c.144-.143.2-.251.3-.351.123-.122.185-.088.265-.006.137.138-.04.218-.1.382-.027.15.019.2.236.418Z" transform="translate(1.377 0.077)" fill="#00376d"/>
        <path id="Path_3610" data-name="Path 3610" d="M146.353,7.207c.134-.093.252-.175.119-.366s-.208-.3-.064-.4.2-.055.245.017c.126.183.207.349.333.532s.256.316.382.5c.049.073.08.133-.072.237s-.223-.019-.35-.2c-.144-.205-.263-.123-.4-.029l-.579.4.74,1.07c.2.285.281.334.679.094l.553-.384a.721.721,0,0,0,.364-.558c.027-.3.093-.475.157-.519.1-.066.193-.063.231-.006.076.11.021.3.073.512.093.37.045.437-.041.5a1.08,1.08,0,0,1-.145.078,1.381,1.381,0,0,0-.186.1l-1.411.98c-.087.06-.184.139-.282.218s-.2.16-.284.22c-.141.1-.2.055-.262-.041-.11-.158.079-.207.162-.359.07-.118.011-.206-.161-.451l-1.472-2.124c-.2-.285-.3-.429-.408-.352-.047.034-.089.11-.145.147s-.129.032-.206-.079c-.066-.095-.088-.162.054-.261a1.394,1.394,0,0,1,.186-.1,1.6,1.6,0,0,0,.177-.1l1.341-.929a2.175,2.175,0,0,0,.171-.141c.059-.052.115-.1.155-.131.064-.044.135-.094.38.089.152.118.378.207.453.319.04.056-.022.168-.1.223-.119.083-.211-.017-.455-.082-.218-.062-.372-.012-.658.185-.586.408-.649.45-.485.689l.632.911Z" transform="translate(1.424 0.052)" fill="#00376d"/>
        <path id="Path_3611" data-name="Path 3611" d="M153.793,5.251c0,.427.17.934-.07,1.038-.133.056-.237-.015-.412-.2L151.267,3.93l.008,2.4c0,.528.126.954-.061,1.034-.16.068-.224-.009-.425-.207l-2.433-2.526c-.194-.189-.252-.3-.422-.229-.053.023-.1.064-.15.087-.152.065-.191-.025-.233-.122s-.045-.179.116-.248c.187-.081.422-.138.607-.218.224-.1.4-.213.624-.309.125-.053.179,0,.22.1.1.229-.36.238-.292.4a.59.59,0,0,0,.127.175l1.884,1.954-.019-3.234c0-.105.019-.249.11-.287s.212.034.286.108l2.169,2.324-.012-2.8a.545.545,0,0,0-.022-.2c-.045-.105-.318.136-.414-.084a.178.178,0,0,1,.105-.225c.141-.061.288-.082.433-.141s.285-.167.435-.228a.172.172,0,0,1,.23.07c.074.177-.141.186-.272.325-.107.119-.079.253-.083.444Z" transform="translate(1.46 0.014)" fill="#00376d"/>
        <path id="Path_3612" data-name="Path 3612" d="M164.086,3.458c.024.3.031.4.162.451.209.061.473-.029.487.164.011.115,0,.184-.176.2a4.041,4.041,0,0,0-.743.023c-.3.023-.391.071-.6.088-.172.013-.2-.052-.207-.167-.016-.194.171-.141.32-.23.117-.1.111-.164.087-.473L163.191.8l-.018,0L161.9,3.531a.828.828,0,0,0-.114.367c.008.078.051.142.057.218a.127.127,0,0,1-.115.135c-.211.017-.321-.138-.529-.439l-1.756-2.53-.019,0,.208,2.539c.024.308.03.374.162.45.16.065.338-.016.353.176.01.116,0,.184-.177.2-.144.011-.264-.017-.465,0-.144.011-.334.066-.5.079s-.2-.052-.208-.168c-.015-.192.173-.138.32-.229.12-.068.112-.175.087-.472L159,1.28c-.019-.222-.033-.4-.26-.442-.186-.024-.386.021-.4-.172-.01-.115,0-.184.177-.2s.339.01.657-.015c.52-.043.385-.022.8.534l1.612,2.3L162.907.516c.131-.284.142-.382.623-.42.3-.024.458-.077.679-.094.175-.015.2.05.207.167.017.193-.257.146-.452.239-.121.06-.112.175-.089.473Z" transform="translate(1.567 0)" fill="#00376d"/>
        <path id="Path_3613" data-name="Path 3613" d="M167.583,2.185c.162.019.306.035.332-.195s.043-.364.214-.344.186.09.174.176c-.024.22-.075.4-.1.62s-.018.4-.044.627c-.01.085-.026.151-.209.13s-.156-.164-.129-.385c.028-.25-.115-.266-.279-.285l-.7-.082-.152,1.295c-.039.344-.011.435.446.517l.67.078a.73.73,0,0,0,.643-.177c.217-.207.383-.295.46-.287.116.014.187.081.178.147-.015.134-.183.241-.283.433-.177.339-.257.359-.362.345a.975.975,0,0,1-.161-.036,1.4,1.4,0,0,0-.21-.044l-1.706-.2c-.1-.013-.23-.017-.355-.024s-.251-.009-.355-.021c-.173-.02-.186-.09-.172-.205.023-.192.2-.1.358-.162.132-.043.143-.148.179-.444l.3-2.568c.04-.346.061-.518-.074-.534-.057-.007-.138.023-.205.016-.086-.012-.119-.064-.1-.2.014-.115.039-.18.212-.16a1.347,1.347,0,0,1,.208.044,1.584,1.584,0,0,0,.2.041L168.177.5c.066.007.144.006.222.006a1.746,1.746,0,0,1,.2,0c.077.008.164.017.226.316a2.668,2.668,0,0,1,.131.54c-.009.068-.13.111-.225.1-.143-.016-.147-.152-.288-.363-.123-.19-.272-.257-.615-.3-.71-.082-.788-.091-.821.2l-.128,1.1Z" transform="translate(1.638 0.002)" fill="#00376d"/>
        <path id="Path_3614" data-name="Path 3614" d="M172.784,5.192c.11.321.232.354.352.388.223.061.226.162.2.264s-.085.165-.242.123c-.224-.061-.5-.177-.727-.239-.2-.055-.344-.054-.547-.11-.131-.034-.141-.108-.113-.211.057-.2.294.021.335-.127a.409.409,0,0,0-.033-.248l-.519-1.394-1.076.977a.36.36,0,0,0-.125.166c-.032.121.465.127.4.36a.172.172,0,0,1-.218.11c-.176-.049-.373-.142-.547-.19-.216-.06-.4-.07-.616-.128-.112-.031-.162-.105-.135-.2.048-.186.176-.132.283-.121a.769.769,0,0,0,.629-.179l1.074-.935c.056-.055.152-.109.171-.185a.6.6,0,0,0-.058-.264l-.543-1.481c-.122-.323-.233-.354-.353-.387-.14-.038-.133-.135-.106-.239s.087-.166.244-.124c.195.055.435.161.631.215.233.063.448.082.68.145.131.035.142.108.112.211-.055.206-.424-.057-.465.093a.359.359,0,0,0,.032.248l.48,1.313,1.116-.9a.359.359,0,0,0,.124-.166c.034-.122-.343-.093-.28-.327a.173.173,0,0,1,.219-.11c.149.039.279.116.428.157.186.049.362.061.548.111.112.031.163.105.138.2-.054.187-.178.131-.286.122a.694.694,0,0,0-.563.2l-1.045.823c-.062.042-.184.129-.2.2a.4.4,0,0,0,.023.276Z" transform="translate(1.674 0.008)" fill="#00376d"/>
        <path id="Path_3615" data-name="Path 3615" d="M175.245,5.969c-.119.284-.145.346-.062.475.111.13.306.138.233.317-.045.107-.09.162-.25.1-.2-.083-.27-.156-.546-.271a2.673,2.673,0,0,0-.574-.2c-.162-.069-.153-.137-.108-.243.074-.179.216-.045.388-.057.14-.005.18-.1.295-.38l1-2.383c.115-.277.156-.376.062-.477-.112-.13-.307-.14-.232-.318.043-.106.089-.162.248-.094a2.788,2.788,0,0,0,.545.27c.275.114.38.117.577.2.159.067.15.137.108.243-.076.178-.219.044-.391.058-.149.031-.175.094-.295.378Z" transform="translate(1.721 0.024)" fill="#00376d"/>
        <path id="Path_3616" data-name="Path 3616" d="M178.2,8.537a2.115,2.115,0,0,1-.83-3.11,2.25,2.25,0,0,1,3.021-.792,2.823,2.823,0,0,1,.925.914c.066-.05.126-.116.249-.042.217.127.07.3-.055.74-.1.321-.055.527-.118.635-.04.067-.12.054-.179.018-.2-.117-.274-.162-.25-.506a1.419,1.419,0,0,0-.591-1.369,1.67,1.67,0,0,0-2.335.673,1.764,1.764,0,0,0,.628,2.577,1.531,1.531,0,0,0,1.566-.05c.144-.149.218-.105.319-.046.125.074.175.137.126.221a2.13,2.13,0,0,1-2.477.138" transform="translate(1.752 0.043)" fill="#00376d"/>
        <path id="Path_3617" data-name="Path 3617" d="M184.835,10.979a1.844,1.844,0,0,0,.038-2.621,1.592,1.592,0,0,0-2.344.243,1.815,1.815,0,0,0,0,2.627,1.575,1.575,0,0,0,2.31-.249m-2.671.443a2.183,2.183,0,0,1-.349-3.087,2.386,2.386,0,0,1,3.4-.191,2.141,2.141,0,0,1,.337,3.1,2.3,2.3,0,0,1-3.387.176" transform="translate(1.794 0.075)" fill="#00376d"/>
        <path id="Path_3618" data-name="Path 3618" d="M187.427,17.585a2.114,2.114,0,0,1,.673-3.148,2.253,2.253,0,0,1,3.054.664,2.862,2.862,0,0,1,.409,1.239c.081-.017.164-.047.242.074.134.212-.073.3-.386.635-.235.24-.289.446-.394.513-.066.04-.132-.008-.168-.066-.126-.195-.172-.269.007-.564a1.414,1.414,0,0,0,.093-1.49,1.669,1.669,0,0,0-2.385-.462,1.766,1.766,0,0,0-.609,2.584,1.53,1.53,0,0,0,1.417.664c.2-.067.243.005.306.105.079.121.1.2.014.253a2.133,2.133,0,0,1-2.273-1" transform="translate(1.85 0.14)" fill="#00376d"/>
        <path id="Path_3619" data-name="Path 3619" d="M192.216,22.771a1.84,1.84,0,0,0,1.23-2.314,1.588,1.588,0,0,0-2.193-.852,1.812,1.812,0,0,0-1.2,2.334,1.572,1.572,0,0,0,2.165.832m-2.578-.824a2.185,2.185,0,0,1,1.1-2.905,2.385,2.385,0,0,1,3.11,1.382,2.139,2.139,0,0,1-1.118,2.912,2.3,2.3,0,0,1-3.092-1.388" transform="translate(1.875 0.187)" fill="#00376d"/>
        <path id="Path_3620" data-name="Path 3620" d="M191.661,27.234a.675.675,0,0,0,.431.55c.264.13.4.271.419.346.022.114-.019.2-.084.214-.163.034-.308-.1-.561-.129-.377-.059-.42-.127-.442-.233a.972.972,0,0,1-.015-.164,1.347,1.347,0,0,0-.025-.211L191,25.758a2.546,2.546,0,0,0-.09-.328,2.232,2.232,0,0,1-.075-.261c-.033-.169.028-.2.14-.226.19-.039.161.155.268.29.083.11.187.089.481.027l2.53-.533c.293-.061.4-.082.427-.217.044-.167-.06-.332.13-.373.112-.023.183-.018.219.151a2.682,2.682,0,0,0,.087.6c.062.292.118.378.161.587.038.17-.024.2-.139.226-.187.039-.16-.155-.265-.29-.113-.1-.178-.091-.483-.027l-2.528.532c-.426.09-.455.095-.331.681Z" transform="translate(1.888 0.239)" fill="#00376d"/>
        <path id="Path_3621" data-name="Path 3621" d="M192.075,31.3a.681.681,0,0,0,.341.611c.239.171.353.33.357.407.006.116-.048.2-.116.2-.164.007-.287-.15-.532-.216-.364-.117-.4-.193-.4-.3a1.109,1.109,0,0,1,.013-.165,1.325,1.325,0,0,0,.008-.213l-.095-1.889c-.007-.144-.022-.24-.033-.336a2.137,2.137,0,0,1-.034-.269c-.009-.174.057-.2.174-.2.192-.01.133.177.218.327.065.123.171.117.47.1l2.581-.129c.3-.014.4-.019.456-.147.07-.159-.006-.338.186-.347.117-.006.187.01.193.184a2.76,2.76,0,0,0-.006.608c.015.3.057.394.066.606.01.174-.058.2-.173.2-.193.009-.132-.178-.217-.327-.095-.122-.164-.118-.471-.1l-2.582.128c-.432.021-.462.023-.432.621Z" transform="translate(1.896 0.285)" fill="#00376d"/>
        <path id="Path_3622" data-name="Path 3622" d="M194.089,34.978c-.014.164-.024.308.206.326s.366.028.353.2-.083.186-.169.18c-.222-.017-.4-.061-.624-.078s-.406,0-.627-.019c-.086-.008-.154-.022-.138-.2s.158-.163.378-.145c.25.02.262-.124.276-.288l.055-.7-1.3-.1c-.346-.027-.436.005-.5.464l-.054.673a.729.729,0,0,0,.2.636c.214.209.309.371.3.448-.01.115-.073.188-.14.184-.134-.012-.247-.176-.444-.268-.344-.162-.367-.241-.359-.347a1,1,0,0,1,.032-.162,1.425,1.425,0,0,0,.034-.21l.133-1.713c.009-.105.009-.23.009-.356s0-.252.007-.357c.016-.174.084-.187.2-.179.195.016.112.193.176.353.048.129.155.136.452.161l2.576.2c.347.027.52.041.531-.094,0-.058-.027-.138-.023-.2.007-.088.058-.122.193-.112.115.009.18.033.169.207a1.532,1.532,0,0,1-.037.21,1.929,1.929,0,0,0-.034.2l-.126,1.627a1.634,1.634,0,0,0,0,.221,1.833,1.833,0,0,1,0,.2c-.006.077-.014.163-.31.236a2.59,2.59,0,0,1-.534.152c-.067-.005-.114-.125-.107-.222.011-.142.146-.152.352-.3.184-.13.243-.28.272-.626.055-.712.061-.789-.227-.812l-1.108-.086Z" transform="translate(1.895 0.326)" fill="#00376d"/>
        <path id="Path_3623" data-name="Path 3623" d="M192.465,39.652c.037-.149.124-.218.235-.189.179.044.213.142.173.3-.035.14-.2.626-.344,1.2-.089.346-.159.778-.232,1.067-.022.093-.046.147-.178.115s-.232-.061-.182-.267-.121-.26-.337-.314c-.384-.1-.327.107-.485.067-.207-.052-.042-.23-.163-.658a3.372,3.372,0,0,1-.2-1.793,2.15,2.15,0,0,1,2.769-1.735,2.277,2.277,0,0,1,.892,3.9c.116.048.227.087.186.245-.048.2-.231.121-.653.1-.361-.022-.559.057-.692.023-.077-.018-.083-.1-.069-.166.036-.14.132-.126.422-.2a1.544,1.544,0,0,0,1.141-1.133A1.841,1.841,0,0,0,191.2,39.3c-.165.645-.026,1.467.48,1.6.385.1.521-.207.654-.74Z" transform="translate(1.887 0.37)" fill="#00376d"/>
        <path id="Path_3624" data-name="Path 3624" d="M191.438,45.017c-.067.148-.125.283.086.376s.333.149.264.309-.139.148-.22.111c-.2-.09-.358-.192-.561-.281s-.381-.139-.584-.229c-.08-.035-.137-.072-.063-.238s.2-.1.4-.01c.228.1.288-.029.355-.179l.286-.644-1.189-.53c-.316-.141-.411-.141-.626.27l-.276.616a.726.726,0,0,0-.022.667.832.832,0,0,1,.135.525c-.047.105-.132.151-.195.124-.122-.055-.176-.245-.326-.4-.272-.271-.266-.352-.223-.449a1.1,1.1,0,0,1,.084-.141,1.387,1.387,0,0,0,.105-.185l.7-1.568c.044-.1.086-.216.128-.333s.085-.238.128-.334c.071-.159.139-.148.245-.1.178.078.039.218.048.39,0,.138.1.182.372.3l2.359,1.054c.316.139.477.211.53.088.024-.052.021-.138.047-.2.037-.079.1-.094.219-.039.107.047.16.092.088.251a1.349,1.349,0,0,1-.1.186,1.225,1.225,0,0,0-.1.176l-.666,1.489a2.228,2.228,0,0,0-.073.211,1.678,1.678,0,0,1-.066.193c-.03.071-.066.149-.37.119a2.814,2.814,0,0,1-.554-.034c-.061-.028-.067-.158-.028-.246.061-.131.191-.095.433-.166.218-.061.325-.182.467-.5.29-.652.321-.723.059-.84l-1.013-.451Z" transform="translate(1.867 0.419)" fill="#00376d"/>
        <path id="Path_3625" data-name="Path 3625" d="M172.692,8.03v3.3a8.874,8.874,0,0,1,5.487,5.707c1.742,0,6.39-.016,6.39-.016A24.977,24.977,0,0,0,172.692,8.03Zm-13.16,10.457a3.237,3.237,0,0,1-2.1,1.868c1.445-.027,3.865.008,3.865.008l-.009-1.851Zm-5.64-8.175c1.591-1.045,3.081-2.256,3.793-2.273,1.315-.035,1.132,1.342,1.07,1.6a1.731,1.731,0,0,1,1.555-.3,1.556,1.556,0,0,1,1.068,1.639,4.459,4.459,0,0,1-1.159,2.069,1.592,1.592,0,0,1,.839,1.537,3.428,3.428,0,0,1-2.067,2.394l2.652-.091c.344-2.152,3.363-5.155,5.839-5.679L167.4,6.627A26.364,26.364,0,0,0,142.935,16.4c-.17.213-.5.65-.5.65s.615-.038,1.164-.024a10.169,10.169,0,0,1,1.057.074,2.412,2.412,0,0,1,1.14-1.848,2.314,2.314,0,0,1,1.363-.167,4.7,4.7,0,0,1,3.122-2.937A20.079,20.079,0,0,0,153.891,10.313Z" transform="translate(1.41 0.063)" fill="none" stroke="#00376d" stroke-linejoin="round" stroke-width="0.35"/>
        <path id="Path_3626" data-name="Path 3626" d="M187.815,23.517l-.561-1.58-9.429-.031a6.333,6.333,0,0,1-1.466,2.739" transform="translate(1.745 0.217)" fill="none" stroke="#00376d" stroke-linecap="round" stroke-linejoin="round" stroke-width="0.35"/>
        <path id="Path_3627" data-name="Path 3627" d="M147.7,39.443a3.529,3.529,0,0,0,1.5-.469,1.166,1.166,0,0,1,1.067.286" transform="translate(1.462 0.386)" fill="none" stroke="#00376d" stroke-linecap="round" stroke-linejoin="round" stroke-width="0.35"/>
        <path id="Path_3628" data-name="Path 3628" d="M148.255,39.367a.358.358,0,0,0,.364.455c.429-.036.4-.629.306-.683" transform="translate(1.467 0.388)" fill="none" stroke="#00376d" stroke-linecap="round" stroke-linejoin="round" stroke-width="0.35"/>
        <path id="Path_3629" data-name="Path 3629" d="M154.754,43.064s-.764-.855-.689-1.324c.089-.546,1.191.386,1.624.088.249-.17-1.018-1.495-.99-1.747.055-.46,1.75-.27,1.96-.9.137-.413-1.341-1.058-1.553-1.183s.389-.3.53-.689-.759-.582-1.183-.616-.637-.036-.6-.408a2.323,2.323,0,0,0-.953-1.659,3.786,3.786,0,0,1-.528,2.291c-.358.272-1.176-.024-1.994.039s-2.6.586-2.89,1.361a2.546,2.546,0,0,1-1.255,1.4c-.484.272-1.55,1.12-1.362,2.1a1.168,1.168,0,0,0,.812.865,1.163,1.163,0,0,1-.028-.8c.178-.328.7-.366,1-.41a3.973,3.973,0,0,1,2.075.169,8.31,8.31,0,0,0,2.807.691C152.641,42.4,153.955,42.343,154.754,43.064Z" transform="translate(1.433 0.343)" fill="none" stroke="#00376d" stroke-linecap="round" stroke-linejoin="round" stroke-width="0.35"/>
        <path id="Path_3630" data-name="Path 3630" d="M185.342,18.562c-.02.032-7.179-.005-7.179-.005l-.021,1.667,8.119,0A5.78,5.78,0,0,0,185.342,18.562Z" transform="translate(1.763 0.184)" fill="none" stroke="#00376d" stroke-linecap="round" stroke-linejoin="round" stroke-width="0.35"/>
        <path id="Path_3631" data-name="Path 3631" d="M141.475,18.379H144.5s-.019.5,0,.837.114,1,.114,1l-4.16,0S141.164,18.864,141.475,18.379Z" transform="translate(1.39 0.182)" fill="none" stroke="#00376d" stroke-linecap="round" stroke-linejoin="round" stroke-width="0.35"/>
        <path id="Path_3632" data-name="Path 3632" d="M154.431,43.08l.6.467a19.549,19.549,0,0,0,3.426,2.537,11.376,11.376,0,0,0,3.075.7c1.129.089,2.284.021,2.655.064.6.068,2.039,2.251,2.7,2.885a4.533,4.533,0,0,0,1.6,1.036,11.106,11.106,0,0,0,1.939.3,10.333,10.333,0,0,0,1.329.608c1,.137,1.544-.362,1.249-.636s-.6-.076-1.08-.233a2.415,2.415,0,0,1-1.113-.716,1.064,1.064,0,0,1-.281-.9c.037-.3.458-.422.9-.388a12.669,12.669,0,0,1,3.1.992,28.288,28.288,0,0,1,5.644,3.33,75.505,75.505,0,0,1,7.645,7.294,17.929,17.929,0,0,1,3.359,5.264c.846,2.094.951,2.68,1.333,2.474.549-.3.084-1.9-.338-3.13a25.659,25.659,0,0,0-2.58-4.418,31.843,31.843,0,0,1,2.791,1.966,5.089,5.089,0,0,0,3.8,1.316c.734-.194.342-.559-.793-.884a7.508,7.508,0,0,1-2.644-1.6c-1.627-1.429-2.5-2.558-3.574-3.447,2.878,1.095,5.333,1.137,6.895.012.585-.422.483-.832.144-.9a12.212,12.212,0,0,0-2.431.2,8.024,8.024,0,0,1-3.081-.491,34.57,34.57,0,0,1-6.377-3.322c2.016-.06,5.746-.11,7.024-2.52.473-.892.41-1.469-.1-1.278s-1.081,1.142-2.252,1.555c-1.289.451-2.336.74-5.677.019s-6.765-4.184-7.95-4.989c-.427-.289-1.208-.9-2.066-1.589-1.521-1.219-3.279-2.665-3.7-2.927a25.169,25.169,0,0,0-2.168-1.283,17.743,17.743,0,0,0-3.131-1.322c1.637-1.093-.414-2.235-1.211-2.281,1.612-1.273-1.34-4.869-2-5.8a14.027,14.027,0,0,0-3.442-3.327c1.375.252,1.733-.09,1.782-.482.068-.555-.816-1.215-1.513-1.722.423.064,1.219,0,1.117-.6-.14-.817-1.273-1.125-1.944-1.358a.8.8,0,0,0,.58-1.167c-.436-1.019-3.606-2.113-3.606-2.113a10.226,10.226,0,0,0,3.789-1.6c.295-.266.575-.8.129-1a11.059,11.059,0,0,0-2.06.282,8.357,8.357,0,0,1-1.623.027c.578-.217,5.864-1.989,5.7-3.527-.07-.629-1.389-.118-2.7.253a16.308,16.308,0,0,1-2.73.531c1.443-.675,2.884-1.315,3.209-1.511a5.01,5.01,0,0,0,2.239-2.078c.309-.607.06-1.079-.456-1.066-.495.012-.981.577-1.975,1.068-1.047.517-2.567,1.119-2.561,1.113.979-.871,2.776-1.963,2.762-2.681-.035-1.659-3.273,1.6-4.736,2.232-1.483.641-3.652,1.216-4.463,2.414a7.177,7.177,0,0,0-.8,1.816,2.725,2.725,0,0,0-.863-.261,1.445,1.445,0,0,0-.924.417c-.365.364-.456.806-.344,1.881a8.109,8.109,0,0,1,.133,2.513,8.463,8.463,0,0,0,.186,3.065c.175.524.746,1.374,2.635,3.114a13.76,13.76,0,0,1,3.632,4.867,9.3,9.3,0,0,1,.649,3.137" transform="translate(1.441 0.096)" fill="none" stroke="#00376d" stroke-linecap="round" stroke-linejoin="round" stroke-width="0.35"/>
        <path id="Path_3633" data-name="Path 3633" d="M176.383,50.491a44.144,44.144,0,0,1,4.253,3.72c.961.928,5.165,6.056,4.741,4.873A16.639,16.639,0,0,0,184,56.4" transform="translate(1.745 0.5)" fill="none" stroke="#00376d" stroke-linecap="round" stroke-linejoin="round" stroke-width="0.35"/>
        <path id="Path_3634" data-name="Path 3634" d="M151.5,33.175a6.578,6.578,0,0,0-1.5-2.957c-1.242-1.466-3.1-3.047-3.937-3.953s-1.525-1.376-1.339-4.308c-1.262-.066-5.084-.038-5.084-.038a27.578,27.578,0,0,0-2.026,7.745,27.577,27.577,0,0,0,.108,5.918" transform="translate(1.361 0.217)" fill="none" stroke="#00376d" stroke-linecap="round" stroke-linejoin="round" stroke-width="0.35"/>
        <path id="Path_3635" data-name="Path 3635" d="M164.231,26.061A7.978,7.978,0,0,1,161.4,21.9c-.947-.029-3.091.019-3.091.019.512.217.773.369.792.728a.778.778,0,0,1-.437.614,2.2,2.2,0,0,1,1.668,1.843.983.983,0,0,1-.694.77c.658.26,1.4,1.665.743,2.41" transform="translate(1.567 0.217)" fill="none" stroke="#00376d" stroke-linecap="round" stroke-linejoin="round" stroke-width="0.35"/>
        <path id="Path_3636" data-name="Path 3636" d="M168.873,6.98l-.024,3.913c.514-.048,1.526-.016,1.817-.083l.068-3.384A7.166,7.166,0,0,0,168.873,6.98Z" transform="translate(1.671 0.069)" fill="none" stroke="#00376d" stroke-linecap="round" stroke-linejoin="round" stroke-width="0.35"/>
        <path id="Path_3637" data-name="Path 3637" d="M171.6,43.153a4.164,4.164,0,0,0,2.864,1.055c1.335-.057,2.622-.162,2.769.457.119.5-.362.613.326.784.621.152,1.409.587,1.524,1.126s-.318.72.249,1.119a1.932,1.932,0,0,1,1.064,2.149" transform="translate(1.698 0.427)" fill="none" stroke="#00376d" stroke-linecap="round" stroke-linejoin="round" stroke-width="0.35"/>
        <path id="Path_3638" data-name="Path 3638" d="M174.34,50.621a12.043,12.043,0,0,0-2.006-.93" transform="translate(1.705 0.492)" fill="none" stroke="#00376d" stroke-linecap="round" stroke-linejoin="round" stroke-width="0.35"/>
      </g>
    </g>
  </g>
</svg>
