<svg xmlns="http://www.w3.org/2000/svg" width="21.274" height="20" viewBox="0 0 21.274 20">
  <path id="Icon_awesome-snapchat-ghost" data-name="Icon awesome-snapchat-ghost" d="M21.226,16.757c-.217.505-1.132.876-2.8,1.135a7.793,7.793,0,0,0-.27,1,.481.481,0,0,1-.5.369H17.64c-.39,0-.8-.18-1.614-.18a3.288,3.288,0,0,0-2.337.855,4.68,4.68,0,0,1-3.076,1.138,4.772,4.772,0,0,1-3.028-1.139,3.284,3.284,0,0,0-2.337-.855,15.694,15.694,0,0,0-1.614.2.493.493,0,0,1-.516-.376,7.7,7.7,0,0,0-.271-1C1.987,17.761.05,17.423,0,16.558a.442.442,0,0,1,.369-.46c2.891-.476,4.193-3.445,4.248-3.571l.01-.021a.944.944,0,0,0,.1-.779c-.21-.494-1.117-.672-1.5-.823-.985-.389-1.122-.836-1.064-1.143a1.069,1.069,0,0,1,1.371-.642,2.378,2.378,0,0,0,.978.262.848.848,0,0,0,.414-.09c-.085-1.493-.3-3.627.236-4.819a5.661,5.661,0,0,1,5.255-3.391l.42,0A5.622,5.622,0,0,1,16.107,4.47c.531,1.19.322,3.315.237,4.82a.814.814,0,0,0,.357.089,2.482,2.482,0,0,0,.917-.26,1.125,1.125,0,0,1,.851,0h0a.863.863,0,0,1,.648.743c.008.4-.354.755-1.075,1.04-.088.035-.2.069-.309.1-.407.129-1.022.324-1.189.718a.944.944,0,0,0,.1.779l.01.021c.054.126,1.355,3.094,4.248,3.571A.453.453,0,0,1,21.226,16.757Z" transform="translate(0 -1.078)" fill="#fff"/>
</svg>
