<svg xmlns="http://www.w3.org/2000/svg" width="99.542" height="98.365" viewBox="0 0 99.542 98.365">
  <g transform="translate(1.5 1.5)">
    <path d="M12.186,61.667S11.012,53.211,10.2,47.476c-.859-6.032-4.631-7.612-8.945-7.612l.96,31.892L22.693,92.24" transform="translate(-1.25 -8.802)" fill="none" stroke="#3f4753" stroke-linecap="round" stroke-linejoin="round" stroke-width="3"/>
    <path d="M40.258,99.377c1.027-9.1-.242-14.228-4.228-18.214-3.334-3.334-5.5-4.717-10.257-5.651l-6.1-6.1c-.981-.981-4.653-3.782-9.421.987L23.1,83.243" transform="translate(-3.01 -14.245)" fill="none" stroke="#3f4753" stroke-linecap="round" stroke-linejoin="round" stroke-width="3"/>
    <path d="M46.918,117.458v-9.632H19.572v9.632" transform="translate(-4.833 -22.093)" fill="none" stroke="#3f4753" stroke-linecap="round" stroke-linejoin="round" stroke-width="3"/>
    <path d="M105.114,61.667s1.174-8.456,1.992-14.191c.859-6.032,4.631-7.612,8.944-7.612l-.959,31.892L94.608,92.24" transform="translate(-19.508 -8.802)" fill="none" stroke="#3f4753" stroke-linecap="round" stroke-linejoin="round" stroke-width="3"/>
    <path d="M74.876,99.377c-1.027-9.1.242-14.228,4.228-18.214,3.334-3.334,5.5-4.717,10.257-5.651l6.1-6.1c.981-.981,4.653-3.782,9.421.987L92.038,83.243" transform="translate(-15.583 -14.245)" fill="none" stroke="#3f4753" stroke-linecap="round" stroke-linejoin="round" stroke-width="3"/>
    <path d="M68.947,117.458v-9.632H96.293v9.632" transform="translate(-14.489 -22.093)" fill="none" stroke="#3f4753" stroke-linecap="round" stroke-linejoin="round" stroke-width="3"/>
    <path d="M44.579,32.18A24.016,24.016,0,0,0,40.3,29.533c-10.224-4.9-22.262-1.045-22.262-1.045s4.539,11.8,14.765,16.7c7.187,3.443,15.27,2.562,19.438,1.734" transform="translate(-4.535 -6.295)" fill="none" stroke="#e0772f" stroke-linecap="round" stroke-linejoin="round" stroke-width="3"/>
    <path d="M69.616,32.18a24.016,24.016,0,0,1,4.275-2.647c10.225-4.9,22.263-1.045,22.263-1.045s-4.54,11.8-14.765,16.7c-7.187,3.443-15.27,2.562-19.438,1.734" transform="translate(-13.121 -6.295)" fill="none" stroke="#e0772f" stroke-linecap="round" stroke-linejoin="round" stroke-width="3"/>
    <line y2="27.384" transform="translate(48.27 41.058)" fill="none" stroke="#e0772f" stroke-linecap="round" stroke-linejoin="round" stroke-width="3"/>
    <path d="M59.146,1.25s8.677,9.191,8.677,20.529-8.677,20.529-8.677,20.529-8.677-9.191-8.677-20.529S59.146,1.25,59.146,1.25Z" transform="translate(-10.876 -1.25)" fill="none" stroke="#e0772f" stroke-linecap="round" stroke-linejoin="round" stroke-width="3"/>
  </g>
</svg>
