<svg xmlns="http://www.w3.org/2000/svg" width="28.445" height="20" viewBox="0 0 28.445 20">
  <path d="M28.9,7.629A3.574,3.574,0,0,0,26.385,5.1c-2.218-.6-11.113-.6-11.113-.6s-8.895,0-11.113.6A3.574,3.574,0,0,0,1.644,7.629,37.493,37.493,0,0,0,1.05,14.52a37.493,37.493,0,0,0,.594,6.891A3.521,3.521,0,0,0,4.159,23.9c2.218.6,11.113.6,11.113.6s8.895,0,11.113-.6A3.521,3.521,0,0,0,28.9,21.411a37.494,37.494,0,0,0,.594-6.891A37.494,37.494,0,0,0,28.9,7.629ZM12.363,18.75V10.291L19.8,14.52,12.363,18.75Z" transform="translate(-1.05 -4.5)" fill="#fff"/>
</svg>
